<svg width="23" height="23" viewBox="0 0 23 23" fill="none" xmlns="http://www.w3.org/2000/svg">
<path d="M7.66634 21.0833H15.333C17.4413 21.0833 19.1663 19.3583 19.1663 17.25V9.4875C19.1663 9.39166 19.1663 9.29583 19.0705 9.2V9.10417C19.0705 9.00833 18.9747 8.9125 18.8788 8.81666L12.1705 2.10833C12.0747 2.0125 11.9788 2.0125 11.883 1.91666H11.7872C11.6913 1.91666 11.5955 1.91666 11.4997 1.82083H7.66634C5.55801 1.91666 3.83301 3.64166 3.83301 5.75V17.25C3.83301 19.3583 5.55801 21.0833 7.66634 21.0833ZM15.908 8.625H14.3747C13.3205 8.625 12.458 7.7625 12.458 6.70833V5.175L15.908 8.625ZM5.74967 5.75C5.74967 4.69583 6.61217 3.83333 7.66634 3.83333H10.5413V6.70833C10.5413 8.81666 12.2663 10.5417 14.3747 10.5417H17.2497V17.25C17.2497 18.3042 16.3872 19.1667 15.333 19.1667H7.66634C6.61217 19.1667 5.74967 18.3042 5.74967 17.25V5.75Z" fill="white"/>
<path d="M10.829 16.9625C11.0207 17.1542 11.2124 17.25 11.4999 17.25H11.6915C11.979 17.1542 12.2665 16.9625 12.3624 16.7708L14.279 12.9375C14.4707 12.4583 14.279 11.8833 13.8957 11.6917C13.4165 11.5 12.8415 11.6917 12.6499 12.075L11.3082 14.7583L10.3499 13.8C9.96654 13.4167 9.39154 13.4167 9.0082 13.8C8.62487 14.1833 8.62487 14.7583 9.0082 15.1417L10.829 16.9625Z" fill="white"/>
</svg>
