<svg width="58" height="58" viewBox="0 0 58 58" fill="none" xmlns="http://www.w3.org/2000/svg">
<circle cx="30.5" cy="28.5" r="27.5" fill="white"/>
<path d="M18.125 54.375H9.0625C7.6209 54.3733 6.23883 53.7999 5.21946 52.7805C4.2001 51.7612 3.62668 50.3791 3.625 48.9375V29.9062C3.62668 28.4647 4.2001 27.0826 5.21946 26.0632C6.23883 25.0438 7.6209 24.4704 9.0625 24.4688H23.5625C25.0041 24.4704 26.3862 25.0438 27.4055 26.0632C28.4249 27.0826 28.9983 28.4647 29 29.9062V43.5C28.9999 43.7403 28.9044 43.9708 28.7345 44.1407L18.7657 54.1095C18.5958 54.2794 18.3653 54.3749 18.125 54.375ZM9.0625 26.2812C8.10138 26.2822 7.17991 26.6644 6.5003 27.344C5.82069 28.0237 5.43846 28.9451 5.4375 29.9062V48.9375C5.43846 49.8986 5.82069 50.8201 6.5003 51.4997C7.17991 52.1793 8.10138 52.5615 9.0625 52.5625H17.7498L27.1875 43.1248V29.9062C27.1865 28.9451 26.8043 28.0237 26.1247 27.344C25.4451 26.6644 24.5236 26.2822 23.5625 26.2812H9.0625Z" fill="#CF413F"/>
<path d="M18.125 54.375C17.8846 54.375 17.6541 54.2795 17.4842 54.1096C17.3142 53.9396 17.2188 53.7091 17.2188 53.4688V48.0313C17.2204 46.5897 17.7938 45.2076 18.8132 44.1882C19.8326 43.1688 21.2147 42.5954 22.6563 42.5938H28.0938C28.273 42.5938 28.4481 42.647 28.5971 42.7465C28.7461 42.8461 28.8623 42.9876 28.9308 43.1532C28.9994 43.3188 29.0174 43.501 28.9824 43.6767C28.9475 43.8525 28.8612 44.014 28.7345 44.1407L18.7657 54.1095C18.5958 54.2794 18.3653 54.375 18.125 54.375ZM22.6563 44.4063C21.6951 44.4072 20.7737 44.7894 20.094 45.469C19.4144 46.1487 19.0322 47.0701 19.0313 48.0313V51.2811L25.9061 44.4063H22.6563ZM12.2344 37.1563C11.2486 37.1563 10.2849 36.8639 9.46521 36.3162C8.64553 35.7685 8.00667 34.9901 7.62942 34.0793C7.25216 33.1685 7.15345 32.1663 7.34578 31.1995C7.5381 30.2326 8.01281 29.3445 8.70989 28.6474C9.40697 27.9503 10.2951 27.4756 11.262 27.2833C12.2288 27.091 13.231 27.1897 14.1418 27.5669C15.0526 27.9442 15.831 28.583 16.3787 29.4027C16.9264 30.2224 17.2188 31.1861 17.2188 32.1719C17.2171 33.4933 16.6914 34.7601 15.757 35.6945C14.8226 36.6289 13.5558 37.1546 12.2344 37.1563ZM12.2344 29C11.607 29 10.9938 29.186 10.4722 29.5346C9.95056 29.8831 9.54402 30.3785 9.30395 30.9581C9.06387 31.5376 9.00106 32.1754 9.12345 32.7907C9.24584 33.406 9.54793 33.9711 9.99152 34.4147C10.4351 34.8583 11.0003 35.1604 11.6156 35.2828C12.2309 35.4052 12.8686 35.3424 13.4482 35.1023C14.0278 34.8622 14.5232 34.4557 14.8717 33.9341C15.2202 33.4125 15.4063 32.7992 15.4063 32.1719C15.4053 31.3309 15.0708 30.5247 14.4762 29.9301C13.8815 29.3354 13.0753 29.001 12.2344 29Z" fill="#CF413F"/>
<path d="M12.6875 34.4375C12.5685 34.4375 12.4506 34.4141 12.3407 34.3685C12.2308 34.323 12.1309 34.2562 12.0468 34.172L10.2343 32.3595C10.0692 32.1886 9.97786 31.9596 9.97992 31.722C9.98199 31.4844 10.0773 31.2571 10.2453 31.0891C10.4133 30.9211 10.6406 30.8258 10.8783 30.8237C11.1159 30.8216 11.3448 30.913 11.5157 31.078L12.6268 32.1891L16.5218 27.5129C16.6758 27.328 16.8969 27.2119 17.1364 27.1901C17.255 27.1793 17.3746 27.1919 17.4883 27.2273C17.602 27.2627 17.7077 27.3202 17.7992 27.3964C17.8907 27.4726 17.9663 27.5661 18.0217 27.6716C18.0771 27.777 18.1112 27.8924 18.122 28.011C18.1328 28.1296 18.1201 28.2492 18.0847 28.3629C18.0493 28.4766 17.9919 28.5822 17.9157 28.6738L13.3844 34.1113C13.3036 34.2081 13.2036 34.287 13.0906 34.343C12.9776 34.399 12.8542 34.4309 12.7283 34.4366L12.6875 34.4375ZM23.5625 29.9063H19.9375C19.6971 29.9063 19.4666 29.8108 19.2967 29.6408C19.1267 29.4709 19.0313 29.2404 19.0313 29C19.0313 28.7597 19.1267 28.5292 19.2967 28.3592C19.4666 28.1892 19.6971 28.0938 19.9375 28.0938H23.5625C23.8029 28.0938 24.0334 28.1892 24.2033 28.3592C24.3733 28.5292 24.4688 28.7597 24.4688 29C24.4688 29.2404 24.3733 29.4709 24.2033 29.6408C24.0334 29.8108 23.8029 29.9063 23.5625 29.9063ZM24.4688 32.625H19.0313C18.7909 32.625 18.5604 32.5295 18.3904 32.3596C18.2205 32.1896 18.125 31.9591 18.125 31.7188C18.125 31.4784 18.2205 31.2479 18.3904 31.078C18.5604 30.908 18.7909 30.8125 19.0313 30.8125H24.4688C24.7091 30.8125 24.9396 30.908 25.1096 31.078C25.2795 31.2479 25.375 31.4784 25.375 31.7188C25.375 31.9591 25.2795 32.1896 25.1096 32.3596C24.9396 32.5295 24.7091 32.625 24.4688 32.625ZM12.2344 48.9375C11.2486 48.9375 10.2849 48.6452 9.46521 48.0975C8.64553 47.5498 8.00667 46.7714 7.62942 45.8606C7.25216 44.9498 7.15345 43.9476 7.34578 42.9807C7.5381 42.0139 8.01281 41.1257 8.70989 40.4287C9.40697 39.7316 10.2951 39.2569 11.262 39.0645C12.2288 38.8722 13.231 38.9709 14.1418 39.3482C15.0526 39.7254 15.831 40.3643 16.3787 41.184C16.9264 42.0036 17.2188 42.9673 17.2188 43.9531C17.2171 45.2746 16.6914 46.5414 15.757 47.4758C14.8226 48.4102 13.5558 48.9358 12.2344 48.9375ZM12.2344 40.7813C11.607 40.7813 10.9938 40.9673 10.4722 41.3158C9.95056 41.6644 9.54402 42.1597 9.30395 42.7393C9.06387 43.3189 9.00106 43.9567 9.12345 44.5719C9.24584 45.1872 9.54793 45.7524 9.99152 46.196C10.4351 46.6396 11.0003 46.9417 11.6156 47.0641C12.2309 47.1865 12.8686 47.1236 13.4482 46.8836C14.0278 46.6435 14.5232 46.237 14.8717 45.7153C15.2202 45.1937 15.4063 44.5805 15.4063 43.9531C15.4053 43.1122 15.0708 42.306 14.4762 41.7113C13.8815 41.1167 13.0753 40.7822 12.2344 40.7813ZM23.5625 41.6875H19.9375C19.6971 41.6875 19.4666 41.592 19.2967 41.4221C19.1267 41.2521 19.0313 41.0216 19.0313 40.7813C19.0313 40.5409 19.1267 40.3104 19.2967 40.1405C19.4666 39.9705 19.6971 39.875 19.9375 39.875H23.5625C23.8029 39.875 24.0334 39.9705 24.2033 40.1405C24.3733 40.3104 24.4688 40.5409 24.4688 40.7813C24.4688 41.0216 24.3733 41.2521 24.2033 41.4221C24.0334 41.592 23.8029 41.6875 23.5625 41.6875Z" fill="#CF413F"/>
<path d="M35.3436 41.6875C34.0663 41.6866 32.7922 41.5591 31.5401 41.3069C31.3102 41.2539 31.11 41.1133 30.9821 40.9151C30.8542 40.7168 30.8086 40.4765 30.8551 40.2452C30.9016 40.0138 31.0365 39.8098 31.2311 39.6763C31.4257 39.5429 31.6646 39.4906 31.8971 39.5306C33.0317 39.7592 34.1862 39.8745 35.3436 39.875C38.7127 39.8761 42.0081 38.8888 44.8215 37.0354C47.635 35.182 49.843 32.544 51.1719 29.448C52.5008 26.3521 52.8923 22.9344 52.2978 19.6182C51.7034 16.3019 50.1491 13.233 47.8276 10.7914C45.5061 8.34982 42.5193 6.64294 39.2373 5.88219C35.9552 5.12144 32.5221 5.34025 29.3631 6.5115C26.2042 7.68276 23.4583 9.755 21.4655 12.4715C19.4727 15.1881 18.3207 18.4295 18.152 21.7944C18.1364 22.0332 18.0285 22.2567 17.851 22.4173C17.6736 22.578 17.4406 22.6634 17.2014 22.6553C17.0825 22.6495 16.9659 22.6203 16.8583 22.5695C16.7507 22.5186 16.6541 22.447 16.5742 22.3588C16.4942 22.2706 16.4324 22.1675 16.3923 22.0554C16.3522 21.9434 16.3346 21.8245 16.3405 21.7056C16.5268 17.987 17.7999 14.4049 20.0021 11.4027C22.2042 8.40061 25.2387 6.11044 28.7296 4.8159C32.2205 3.52136 36.0145 3.27932 39.6416 4.11976C43.2687 4.9602 46.5696 6.8462 49.1354 9.54415C51.7012 12.2421 53.4191 15.6335 54.0765 19.2982C54.7339 22.9629 54.3018 26.7399 52.8337 30.1615C51.3656 33.583 48.9261 36.4987 45.8172 38.5475C42.7084 40.5962 39.0668 41.688 35.3436 41.6875Z" fill="#CF413F"/>
<path d="M35.3437 38.0625C34.0447 38.0645 32.7506 37.9025 31.4921 37.5804C31.3747 37.5528 31.2639 37.502 31.1663 37.431C31.0687 37.3599 30.9863 37.2702 30.9239 37.1669C30.8615 37.0636 30.8204 36.9489 30.8029 36.8295C30.7854 36.7101 30.7919 36.5884 30.8221 36.4716C30.8523 36.3547 30.9055 36.2451 30.9786 36.1491C31.0517 36.0531 31.1433 35.9727 31.2479 35.9125C31.3525 35.8524 31.4681 35.8137 31.5878 35.7988C31.7076 35.784 31.8291 35.7932 31.9453 35.8259C34.6557 36.526 37.5161 36.3724 40.136 35.3863C42.7559 34.4001 45.0076 32.6293 46.5836 30.3158C48.1596 28.0022 48.9831 25.2586 48.9417 22.4595C48.9003 19.6605 47.996 16.9424 46.3523 14.6765C44.7086 12.4105 42.4055 10.7071 39.7576 9.79883C37.1097 8.89056 34.246 8.82169 31.5575 9.60162C28.8689 10.3816 26.4867 11.9723 24.7359 14.1566C22.9851 16.3409 21.9512 19.0124 21.7753 21.8062C21.7576 22.0439 21.6469 22.2652 21.4672 22.4219C21.2875 22.5786 21.0533 22.6581 20.8154 22.6434C20.5774 22.6286 20.3549 22.5206 20.196 22.3429C20.0371 22.1651 19.9546 21.9319 19.9665 21.6938C20.1542 18.6937 21.2156 15.814 23.0198 13.4096C24.824 11.0052 27.2921 9.18114 30.1202 8.16216C32.9482 7.14317 36.0126 6.97378 38.9357 7.67486C41.8589 8.37594 44.513 9.91686 46.5712 12.1078C48.6294 14.2986 50.0017 17.0438 50.519 20.005C51.0363 22.9662 50.6761 26.014 49.4826 28.7729C48.2891 31.5319 46.3146 33.8814 43.8023 35.532C41.29 37.1827 38.3497 38.0623 35.3437 38.0625Z" fill="#CF413F"/>
<path d="M35.3438 25.375C34.806 25.375 34.2804 25.2155 33.8333 24.9168C33.3862 24.6181 33.0377 24.1935 32.832 23.6967C32.6262 23.1999 32.5723 22.6532 32.6772 22.1258C32.7821 21.5985 33.0411 21.114 33.4213 20.7338C33.8015 20.3536 34.286 20.0946 34.8134 19.9897C35.3407 19.8848 35.8874 19.9387 36.3842 20.1445C36.881 20.3502 37.3056 20.6987 37.6043 21.1458C37.903 21.5929 38.0625 22.1185 38.0625 22.6563C38.0618 23.3771 37.7751 24.0682 37.2654 24.5779C36.7557 25.0876 36.0646 25.3743 35.3438 25.375ZM35.3438 21.75C35.1645 21.75 34.9893 21.8032 34.8403 21.9027C34.6912 22.0023 34.5751 22.1438 34.5065 22.3094C34.4379 22.475 34.4199 22.6573 34.4549 22.8331C34.4899 23.0088 34.5762 23.1703 34.7029 23.2971C34.8297 23.4238 34.9912 23.5101 35.1669 23.5451C35.3427 23.5801 35.525 23.5621 35.6906 23.4935C35.8562 23.4249 35.9977 23.3088 36.0973 23.1597C36.1969 23.0107 36.25 22.8355 36.25 22.6563C36.2498 22.416 36.1542 22.1856 35.9843 22.0157C35.8144 21.8458 35.584 21.7502 35.3438 21.75Z" fill="#CF413F"/>
<path d="M34.0625 22.2811C33.9435 22.2812 33.8256 22.2578 33.7156 22.2122C33.6057 22.1667 33.5058 22.0998 33.4218 22.0155L30.8589 19.4518C30.6938 19.2808 30.6025 19.0519 30.6045 18.8143C30.6066 18.5767 30.7019 18.3494 30.8699 18.1814C31.038 18.0133 31.2653 17.918 31.5029 17.916C31.7405 17.9139 31.9694 18.0052 32.1403 18.1703L34.7032 20.7341C34.8299 20.8608 34.9162 21.0223 34.9511 21.1981C34.9861 21.3738 34.9681 21.556 34.8996 21.7216C34.831 21.8872 34.7149 22.0287 34.5659 22.1283C34.4169 22.2279 34.2417 22.281 34.0625 22.2811ZM36.6254 22.2811C36.4461 22.281 36.271 22.2279 36.122 22.1283C35.973 22.0287 35.8569 21.8872 35.7883 21.7216C35.7197 21.556 35.7018 21.3738 35.7367 21.1981C35.7717 21.0223 35.8579 20.8608 35.9846 20.7341L41.752 14.9667C41.9229 14.8016 42.1519 14.7103 42.3895 14.7124C42.6271 14.7144 42.8544 14.8097 43.0224 14.9778C43.1904 15.1458 43.2857 15.3731 43.2878 15.6107C43.2899 15.8483 43.1985 16.0772 43.0335 16.2482L37.2661 22.0155C37.182 22.0998 37.0822 22.1667 36.9722 22.2122C36.8623 22.2578 36.7444 22.2812 36.6254 22.2811ZM35.3439 10.875C35.1036 10.875 34.8731 10.7795 34.7031 10.6096C34.5331 10.4396 34.4377 10.2091 34.4377 9.96875V9.0625C34.4377 8.82215 34.5331 8.59164 34.7031 8.42168C34.8731 8.25173 35.1036 8.15625 35.3439 8.15625C35.5843 8.15625 35.8148 8.25173 35.9847 8.42168C36.1547 8.59164 36.2502 8.82215 36.2502 9.0625V9.96875C36.2502 10.2091 36.1547 10.4396 35.9847 10.6096C35.8148 10.7795 35.5843 10.875 35.3439 10.875ZM35.3439 37.1562C35.1036 37.1562 34.8731 37.0608 34.7031 36.8908C34.5331 36.7209 34.4377 36.4904 34.4377 36.25V35.3438C34.4377 35.1034 34.5331 34.8729 34.7031 34.7029C34.8731 34.533 35.1036 34.4375 35.3439 34.4375C35.5843 34.4375 35.8148 34.533 35.9847 34.7029C36.1547 34.8729 36.2502 35.1034 36.2502 35.3438V36.25C36.2502 36.4904 36.1547 36.7209 35.9847 36.8908C35.8148 37.0608 35.5843 37.1562 35.3439 37.1562ZM48.9377 23.5625H48.0314C47.7911 23.5625 47.5606 23.467 47.3906 23.2971C47.2206 23.1271 47.1252 22.8966 47.1252 22.6562C47.1252 22.4159 47.2206 22.1854 47.3906 22.0154C47.5606 21.8455 47.7911 21.75 48.0314 21.75H48.9377C49.178 21.75 49.4085 21.8455 49.5785 22.0154C49.7484 22.1854 49.8439 22.4159 49.8439 22.6562C49.8439 22.8966 49.7484 23.1271 49.5785 23.2971C49.4085 23.467 49.178 23.5625 48.9377 23.5625Z" fill="#CF413F"/>
</svg>
