<svg width="120" height="120" viewBox="0 0 120 120" fill="none" xmlns="http://www.w3.org/2000/svg">
<circle cx="60" cy="60" r="60" fill="white"/>
<circle cx="59.5" cy="59.5" r="54" stroke="#273D62"/>
<g opacity="0.3">
<path d="M62.6828 57.4701C70.9763 56.1243 76.6085 48.3102 75.2627 40.0167C73.917 31.7232 66.1028 26.0909 57.8093 27.4367C49.5158 28.7825 43.8835 36.5967 45.2293 44.8902C46.5751 53.1837 54.3893 58.8159 62.6828 57.4701Z" fill="#243147"/>
<path d="M27 78.7157C27 87.6993 34.3006 94.9999 43.2842 94.9999H77.2078C86.1914 94.9999 93.492 87.6993 93.492 78.7157C93.492 69.7322 86.1914 62.4315 77.2078 62.4315H43.2842C34.3006 62.4315 27 69.7321 27 78.7157Z" fill="#243147"/>
</g>
</svg>
