<svg width="727" height="283" viewBox="0 0 727 283" fill="none" xmlns="http://www.w3.org/2000/svg">
<path d="M336.677 145.804C336.677 145.804 337.896 167.158 322.869 166.935L321.937 174.642L302.73 172.314L307.278 134.751L335.822 132.767L336.677 145.804Z" fill="#FEDFC1"/>
<path d="M300.528 149.957C300.418 150.914 300.594 151.883 301.034 152.74C301.474 153.597 302.157 154.305 302.999 154.774C303.841 155.243 304.803 155.452 305.763 155.374C306.724 155.297 307.64 154.937 308.395 154.339C309.151 153.741 309.713 152.933 310.01 152.016C310.306 151.1 310.325 150.116 310.063 149.188C309.801 148.261 309.27 147.433 308.537 146.807C307.804 146.181 306.903 145.787 305.946 145.673C304.659 145.524 303.367 145.892 302.351 146.695C301.335 147.498 300.68 148.671 300.528 149.957Z" fill="#FEDFC1"/>
<path d="M322.869 166.935C322.869 166.935 316.116 166.058 311.789 161.485C311.789 161.485 313.078 167.562 322.504 169.952L322.869 166.935Z" fill="#FFB1A8"/>
<path d="M329.412 135.225C329.412 135.225 323.046 148.543 306.52 145.875C306.52 145.875 303.724 144.676 301.795 147.913C301.795 147.913 287.834 138.242 294.475 118.661C294.475 118.661 321.727 91.3826 339.846 116.994C340.14 117.312 340.413 117.649 340.664 118.002C344.092 122.662 344.351 128.946 341.531 133.999L340.953 135.034C340.953 135.034 347.016 145.134 336.865 147.761C336.868 147.761 330.289 142.768 329.412 135.225Z" fill="#6F4A2D"/>
<path d="M294.47 118.656C294.47 118.656 284.076 123.981 277.381 115.931C276.184 114.492 275.746 111.012 276.612 109.344C277.201 108.191 278.43 107.139 280.891 106.831C280.891 106.831 276.95 105.286 277.424 98.2498C277.942 90.5649 283.357 84.1416 290.655 81.6835C297.195 79.4761 305.916 79.1001 313.615 87.2401C313.615 87.2401 321.035 95.8381 314.263 106.94C314.263 106.938 302.005 112.012 294.47 118.656Z" fill="#6F4A2D"/>
<path d="M313.598 107.398C317.566 105.283 321.844 104.607 326.063 104.964C330.281 105.321 334.413 106.73 338.645 108.235C335.137 105.259 330.806 103.422 326.229 102.967C323.907 102.768 321.568 103.031 319.348 103.741C317.149 104.468 315.083 105.687 313.598 107.398Z" fill="#6F4A2D"/>
<path d="M314.604 107.052C316.906 105.448 318.834 103.364 320.253 100.942C321.615 98.5088 322.52 95.5302 321.831 92.7288C320.976 95.2434 319.869 97.6649 318.525 99.9559C317.255 102.231 315.71 104.433 314.604 107.052ZM324.817 145.692C324.515 146.066 323.24 145.556 321.842 145.712C320.438 145.782 319.261 146.488 318.901 146.167C318.501 145.894 319.531 144.12 321.7 143.94C323.869 143.76 325.169 145.363 324.817 145.692ZM333.783 147.229C333.388 147.502 332.298 146.684 330.911 146.447C329.548 146.139 328.216 146.502 327.957 146.096C327.646 145.717 329.112 144.294 331.249 144.706C333.385 145.117 334.211 146.998 333.783 147.229Z" fill="#6F4A2D"/>
<path d="M331.203 150.306C331.137 151.276 330.587 152.031 329.974 151.988C329.361 151.944 328.914 151.126 328.982 150.156C329.05 149.186 329.598 148.431 330.211 148.475C330.824 148.518 331.271 149.336 331.203 150.306ZM322.894 149.742C322.828 150.712 322.275 151.464 321.662 151.423C321.049 151.383 320.605 150.562 320.67 149.589C320.735 148.617 321.286 147.867 321.902 147.911C322.518 147.954 322.959 148.772 322.894 149.742Z" fill="#454545"/>
<path d="M325.769 158.626C325.683 158.618 325.602 158.581 325.54 158.519C325.479 158.458 325.441 158.377 325.434 158.291C325.427 158.205 325.45 158.119 325.499 158.048C325.549 157.977 325.623 157.926 325.706 157.904C326.608 157.683 327.979 157.127 328.061 156.634C328.091 156.454 327.876 156.203 327.475 155.95C324.818 154.274 325.652 149.655 325.687 149.458C325.709 149.366 325.766 149.287 325.845 149.235C325.924 149.184 326.02 149.165 326.113 149.183C326.206 149.2 326.288 149.253 326.344 149.329C326.399 149.406 326.422 149.501 326.409 149.595C326.409 149.638 325.633 153.917 327.867 155.317C328.56 155.756 328.87 156.233 328.786 156.743C328.598 157.89 326.333 158.495 325.881 158.607C325.845 158.618 325.807 158.625 325.769 158.626Z" fill="#FF7867"/>
<path d="M320.354 160.079C320.272 162.152 321.716 163.916 323.624 164.046C325.532 164.177 327.189 162.621 327.388 160.556L320.354 160.079Z" fill="white"/>
<path d="M327.169 161.515C327.273 161.205 327.341 160.886 327.374 160.561L320.354 160.079C320.34 160.404 320.366 160.73 320.43 161.049L327.169 161.515Z" fill="white"/>
<path d="M388.15 190.832L387.218 197.95L379.035 195.964L380.198 188.838L388.15 190.832Z" fill="#FEDFC1"/>
<path d="M376.868 172.249C377.732 171.897 378.729 172.38 379.212 173.391L381.888 177.478L385.755 163.934C385.918 163.34 386.472 163.065 386.976 163.357C387.185 163.502 387.347 163.705 387.444 163.94C387.54 164.175 387.567 164.434 387.521 164.684L385.94 174.418L390.791 164.152C390.834 164.036 390.905 163.932 390.997 163.848C391.089 163.765 391.2 163.705 391.32 163.673C391.44 163.641 391.566 163.638 391.688 163.666C391.809 163.693 391.922 163.748 392.017 163.828C392.228 164.011 392.375 164.256 392.439 164.527C392.503 164.799 392.479 165.083 392.372 165.341L392.339 165.433C392.361 165.409 387.935 175.674 387.935 175.674L392.879 167.123C392.919 167.043 392.975 166.971 393.043 166.913C393.111 166.855 393.191 166.811 393.276 166.783C393.362 166.756 393.452 166.747 393.541 166.755C393.631 166.763 393.718 166.789 393.797 166.831C394.021 166.968 394.189 167.181 394.268 167.432C394.348 167.682 394.334 167.953 394.23 168.194L390.284 177.617L395.372 171.772C395.68 171.434 395.95 171.344 396.299 171.682C396.373 171.753 396.435 171.836 396.481 171.927C396.567 172.112 396.608 172.315 396.6 172.519C396.592 172.723 396.535 172.922 396.435 173.099L388.164 190.84L380.209 188.845C380.209 188.845 379.811 186.888 379.501 183.58C379.19 180.272 376.868 172.249 376.868 172.249Z" fill="#FEDFC1"/>
<path d="M324.496 282.992L326.913 173.091L300.422 169.442L299.465 282.992H324.496Z" fill="#F06967"/>
<path d="M238.599 278.563L249.033 265.21L236.811 236.62L274.116 205.349L277.558 239.392C277.558 239.392 259.076 252.143 252.14 282.995H299.465L300.422 169.445L283.079 166.346C280.97 165.977 278.809 166.034 276.723 166.512C274.636 166.991 272.667 167.883 270.93 169.134C259.13 177.457 234.745 197.969 220.34 220.724C218.563 223.529 216.656 230.094 216.656 230.094C215.435 236.354 216.362 242.842 219.286 248.51L238.599 278.563Z" fill="#CF413F"/>
<path d="M274.116 205.693C274.068 205.692 274.021 205.682 273.977 205.662C273.933 205.642 273.894 205.614 273.862 205.578C273.833 205.545 273.81 205.506 273.795 205.464C273.781 205.422 273.775 205.378 273.778 205.333C273.78 205.289 273.792 205.246 273.812 205.206C273.831 205.166 273.859 205.13 273.892 205.101C273.958 205.041 280.433 199.193 279.803 188.72C279.798 188.631 279.828 188.543 279.888 188.476C279.947 188.41 280.03 188.369 280.119 188.363C280.164 188.359 280.209 188.364 280.251 188.378C280.294 188.392 280.333 188.414 280.366 188.444C280.4 188.474 280.427 188.51 280.446 188.55C280.465 188.591 280.475 188.635 280.476 188.679C281.125 199.496 274.407 205.548 274.339 205.608C274.278 205.662 274.198 205.693 274.116 205.693Z" fill="#CF413F"/>
<path d="M310.595 282.616C310.56 282.615 310.526 282.608 310.494 282.597C309.259 282.092 308.96 279.76 309.603 275.656C309.603 275.607 310.336 271.38 310.886 270.173C310.796 270.031 310.677 269.873 310.548 269.701C310.072 269.061 309.418 268.183 309.418 267.278C313.061 249.638 312.66 232.794 312.273 216.503C311.963 203.422 311.641 189.875 313.432 176.1C313.455 176.045 313.496 175.999 313.547 175.97C313.599 175.94 313.659 175.929 313.718 175.936C313.777 175.944 313.832 175.971 313.874 176.013C313.916 176.054 313.944 176.109 313.952 176.168C312.164 189.903 312.489 203.42 312.799 216.5C313.186 232.821 313.587 249.696 309.935 267.344C309.935 268.02 310.51 268.785 310.968 269.399C311.134 269.622 311.284 269.824 311.388 269.995C311.399 270.013 311.407 270.032 311.412 270.053C311.425 270.097 311.427 270.143 311.417 270.188C311.407 270.233 311.385 270.274 311.355 270.309C311.05 271.053 309.088 278.683 310.074 281.351C310.117 281.516 310.195 281.67 310.301 281.803C310.408 281.936 310.541 282.045 310.693 282.122C310.755 282.151 310.805 282.201 310.832 282.264C310.859 282.328 310.861 282.399 310.837 282.463C310.815 282.509 310.781 282.547 310.738 282.574C310.695 282.601 310.645 282.615 310.595 282.616ZM312.214 187.131C312.214 187.441 312.122 187.744 311.949 188.002C311.777 188.259 311.533 188.46 311.246 188.579C310.96 188.698 310.645 188.729 310.341 188.668C310.037 188.608 309.758 188.458 309.539 188.239C309.319 188.02 309.17 187.741 309.11 187.437C309.049 187.133 309.08 186.818 309.199 186.532C309.317 186.245 309.518 186.001 309.776 185.828C310.034 185.656 310.337 185.564 310.647 185.564C311.062 185.564 311.461 185.729 311.755 186.023C312.048 186.317 312.214 186.716 312.214 187.131Z" fill="white"/>
<path d="M311.549 220.378C311.548 220.688 311.456 220.991 311.283 221.248C311.111 221.505 310.866 221.706 310.58 221.824C310.293 221.942 309.978 221.973 309.675 221.912C309.371 221.851 309.092 221.702 308.873 221.483C308.654 221.263 308.505 220.984 308.445 220.68C308.385 220.376 308.416 220.061 308.534 219.775C308.653 219.489 308.854 219.245 309.112 219.072C309.369 218.9 309.672 218.809 309.982 218.809C310.188 218.809 310.392 218.849 310.582 218.928C310.772 219.007 310.945 219.123 311.091 219.268C311.236 219.414 311.352 219.587 311.43 219.778C311.509 219.968 311.549 220.172 311.549 220.378ZM310.636 255.549C310.636 255.859 310.544 256.162 310.372 256.42C310.2 256.678 309.955 256.878 309.669 256.997C309.382 257.116 309.067 257.147 308.763 257.086C308.459 257.026 308.18 256.876 307.961 256.657C307.742 256.438 307.593 256.159 307.532 255.855C307.472 255.551 307.503 255.236 307.621 254.95C307.74 254.663 307.941 254.419 308.198 254.246C308.456 254.074 308.759 253.982 309.069 253.982C309.485 253.982 309.883 254.147 310.177 254.441C310.471 254.735 310.636 255.134 310.636 255.549Z" fill="white"/>
<path d="M252.137 282.984L254.337 275.664L258.888 278.498C259.011 278.572 259.157 278.596 259.297 278.567C259.438 278.537 259.562 278.456 259.645 278.339C259.728 278.222 259.763 278.078 259.745 277.935C259.726 277.793 259.655 277.663 259.544 277.571L254.936 273.89C254.867 273.834 254.818 273.756 254.797 273.67C254.776 273.583 254.784 273.492 254.819 273.41C254.842 273.359 254.874 273.314 254.916 273.276C254.957 273.238 255.005 273.21 255.058 273.192C255.111 273.174 255.166 273.167 255.222 273.172C255.277 273.177 255.331 273.193 255.38 273.219L260.326 275.945C260.448 276.013 260.591 276.034 260.727 276.004C260.863 275.974 260.984 275.894 261.065 275.781C261.146 275.667 261.183 275.528 261.168 275.389C261.153 275.251 261.087 275.122 260.983 275.029L256.078 270.519C255.997 270.443 255.946 270.341 255.935 270.23C255.924 270.12 255.955 270.009 256.021 269.919C256.086 269.83 256.182 269.768 256.291 269.744C256.4 269.721 256.513 269.739 256.609 269.794L261.907 272.881C262.066 272.971 262.252 272.999 262.43 272.959C262.607 272.92 262.764 272.816 262.87 272.667C262.975 272.519 263.022 272.336 263 272.155C262.979 271.975 262.892 271.808 262.755 271.688L258.089 267.723C258.076 267.711 258.068 267.695 258.066 267.678C258.063 267.66 258.067 267.643 258.076 267.628C258.085 267.613 258.098 267.602 258.115 267.595C258.131 267.589 258.149 267.589 258.165 267.595L263.218 269.426C263.371 269.485 263.542 269.482 263.693 269.419C263.845 269.355 263.966 269.235 264.032 269.084C264.097 268.934 264.102 268.763 264.045 268.609C263.987 268.455 263.873 268.329 263.725 268.257L256.784 264.714C256.564 264.597 256.323 264.526 256.076 264.505C255.828 264.484 255.578 264.513 255.342 264.591C255.106 264.669 254.888 264.794 254.702 264.958C254.515 265.123 254.364 265.323 254.258 265.548L250.919 272.606L247.297 267.428L241.632 274.702L250.715 282.984H252.137Z" fill="#FEDFC1"/>
<path d="M354.765 282.984C350.832 259.863 341.684 245.513 341.684 245.513L345.987 230.083L360.645 246.764C365.466 252.255 372.685 253.98 379.04 251.162C385.153 248.453 389.377 242.025 389.941 234.588L391.372 192.838L376.945 187.791L369.442 222.008L347.118 185.423C345.397 182.604 342.873 180.364 339.869 178.991L326.913 173.08L324.496 282.984H354.765Z" fill="#CF413F"/>
<path d="M345.984 230.429C345.933 230.429 345.883 230.418 345.838 230.396C345.792 230.374 345.752 230.342 345.72 230.302C345.688 230.263 345.666 230.217 345.655 230.167C345.643 230.118 345.643 230.067 345.654 230.017C345.7 229.816 350.088 209.472 344.365 184.859C344.345 184.771 344.36 184.679 344.408 184.603C344.455 184.527 344.531 184.473 344.618 184.453C344.706 184.432 344.798 184.448 344.874 184.495C344.95 184.543 345.004 184.619 345.025 184.706C350.783 209.475 346.36 229.96 346.314 230.165C346.297 230.24 346.255 230.307 346.195 230.355C346.135 230.403 346.061 230.429 345.984 230.429ZM368.148 231.652H368.101C368.015 231.637 367.938 231.589 367.887 231.517C367.836 231.446 367.815 231.358 367.829 231.271L369.118 221.965C369.123 221.92 369.137 221.877 369.159 221.838C369.181 221.799 369.211 221.765 369.246 221.738C369.282 221.711 369.323 221.692 369.366 221.681C369.41 221.67 369.455 221.668 369.499 221.676C369.588 221.689 369.668 221.736 369.722 221.807C369.776 221.879 369.8 221.968 369.788 222.057L368.496 231.364C368.485 231.447 368.443 231.522 368.378 231.576C368.314 231.629 368.231 231.657 368.148 231.652ZM391.061 202.627C391.027 202.626 390.993 202.621 390.96 202.61L376.765 198.25C376.722 198.237 376.682 198.216 376.648 198.188C376.614 198.16 376.585 198.125 376.564 198.086C376.544 198.046 376.531 198.003 376.527 197.959C376.523 197.915 376.528 197.87 376.541 197.828C376.568 197.742 376.628 197.671 376.707 197.629C376.786 197.588 376.878 197.579 376.963 197.604L391.159 201.964C391.202 201.977 391.241 201.998 391.276 202.027C391.31 202.055 391.339 202.089 391.36 202.129C391.381 202.168 391.394 202.211 391.398 202.255C391.403 202.3 391.398 202.344 391.385 202.387C391.363 202.456 391.32 202.516 391.262 202.559C391.204 202.603 391.133 202.626 391.061 202.627ZM387.987 198.931C387.61 198.931 387.241 198.819 386.927 198.61C386.613 198.4 386.369 198.102 386.224 197.754C386.08 197.405 386.042 197.022 386.116 196.652C386.189 196.282 386.371 195.942 386.638 195.675C386.905 195.408 387.245 195.226 387.615 195.153C387.985 195.079 388.368 195.117 388.717 195.261C389.065 195.406 389.363 195.65 389.573 195.964C389.783 196.278 389.894 196.646 389.894 197.024C389.894 197.53 389.693 198.015 389.336 198.373C388.978 198.73 388.493 198.931 387.987 198.931ZM387.987 195.797C387.744 195.798 387.506 195.871 387.305 196.006C387.103 196.141 386.946 196.333 386.853 196.558C386.761 196.783 386.737 197.03 386.784 197.268C386.832 197.506 386.949 197.725 387.121 197.897C387.293 198.068 387.512 198.185 387.751 198.232C387.989 198.279 388.236 198.255 388.46 198.162C388.685 198.069 388.877 197.911 389.012 197.709C389.147 197.507 389.219 197.269 389.219 197.026C389.218 196.7 389.088 196.388 388.857 196.157C388.626 195.927 388.313 195.797 387.987 195.797ZM238.811 273.544C238.434 273.544 238.065 273.432 237.751 273.222C237.437 273.013 237.193 272.715 237.049 272.366C236.904 272.018 236.866 271.634 236.94 271.264C237.014 270.894 237.195 270.554 237.462 270.287C237.729 270.021 238.069 269.839 238.439 269.765C238.809 269.692 239.192 269.729 239.541 269.874C239.89 270.018 240.188 270.263 240.397 270.576C240.607 270.89 240.719 271.259 240.719 271.636C240.719 272.142 240.518 272.627 240.16 272.985C239.802 273.343 239.317 273.544 238.811 273.544ZM238.811 270.41C238.568 270.41 238.33 270.482 238.128 270.617C237.926 270.752 237.769 270.944 237.676 271.169C237.582 271.393 237.558 271.64 237.606 271.879C237.653 272.117 237.77 272.336 237.942 272.508C238.114 272.68 238.333 272.797 238.571 272.844C238.81 272.892 239.057 272.867 239.281 272.774C239.506 272.681 239.698 272.524 239.833 272.322C239.968 272.12 240.04 271.882 240.04 271.639C240.04 271.313 239.911 271 239.68 270.77C239.45 270.539 239.137 270.41 238.811 270.41ZM235.241 269.415C235.16 269.415 235.082 269.386 235.02 269.333C234.953 269.275 234.911 269.192 234.903 269.103C234.896 269.014 234.925 268.925 234.982 268.857L245.259 256.896C245.317 256.827 245.401 256.785 245.49 256.778C245.58 256.771 245.669 256.8 245.737 256.859C245.805 256.917 245.848 257.001 245.854 257.09C245.861 257.18 245.832 257.269 245.774 257.337L235.497 269.298C235.465 269.335 235.426 269.364 235.382 269.384C235.338 269.404 235.29 269.415 235.241 269.415Z" fill="#CF413F"/>
<path d="M307.159 180.91C307.107 180.91 307.057 180.895 307.014 180.866L299.365 175.822C299.326 175.777 299.302 175.72 299.298 175.661C299.294 175.601 299.309 175.542 299.342 175.493C299.375 175.443 299.423 175.405 299.479 175.385C299.536 175.366 299.597 175.365 299.654 175.383L307.148 180.327L313.375 175.647C313.402 175.626 313.433 175.611 313.466 175.602C313.5 175.593 313.534 175.591 313.568 175.596C313.603 175.601 313.635 175.612 313.665 175.63C313.694 175.648 313.72 175.671 313.74 175.699C313.779 175.755 313.795 175.824 313.785 175.892C313.776 175.959 313.741 176.021 313.688 176.064L307.309 180.858C307.265 180.89 307.213 180.908 307.159 180.91Z" fill="white"/>
<path d="M318.841 181.624C318.804 181.623 318.768 181.615 318.734 181.6C318.7 181.585 318.67 181.563 318.645 181.536L313.739 176.029C313.696 175.976 313.675 175.909 313.679 175.841C313.683 175.773 313.712 175.708 313.761 175.661C313.814 175.617 313.882 175.594 313.95 175.598C314.019 175.601 314.084 175.631 314.132 175.68L318.917 181.062L327.717 177.857C327.775 177.854 327.834 177.869 327.883 177.901C327.932 177.933 327.97 177.98 327.99 178.036C328.01 178.091 328.012 178.151 327.995 178.207C327.978 178.264 327.944 178.313 327.897 178.348L318.931 181.618C318.901 181.625 318.871 181.627 318.841 181.624Z" fill="white"/>
<path d="M302.921 169.758L312.603 174.328L322.174 172.445L313.061 168.115L302.921 169.758Z" fill="#FEDFC1"/>
<path d="M326.913 173.091L322.607 169.11L322.174 172.445L325.098 173.677L326.913 173.091ZM303.447 166.232L303.035 170.025L300.422 169.442L303.447 166.232Z" fill="#FF7867"/>
<path d="M115.053 282.984L114.95 282.834L118.901 254.012C102.071 260.133 83.4523 281.558 83.4523 281.558C83.0626 282.035 82.7083 282.509 82.335 282.984H115.053Z" fill="#7EB0E9"/>
<path d="M136.122 169.723L136.705 171.055L139.305 176.994L156.781 180.575L166.589 166.924L164.523 162.057L164.049 160.926L136.122 169.723Z" fill="#F7C99B"/>
<path d="M256.369 43.2286C256.369 43.2286 245.275 28.1802 228.573 36.4702C228.57 36.4702 240.94 54.1947 256.369 43.2286Z" fill="#7EB0E9"/>
<path d="M251.677 35.6199L248.48 44.5475L236.032 40.3998L239.596 31.5049L251.677 35.6199Z" fill="#F7C99B"/>
<path d="M114.549 282.984H189.834C206.365 208.246 168.507 164.812 168.507 164.812L164.746 162.613L166.594 166.916L156.784 180.561L139.312 176.991L136.127 169.72L132.164 173.432L116.863 243.826C116.863 243.826 121.198 256.321 114.565 265.758C107.932 275.195 109.733 281.054 109.733 281.054L114.549 282.984ZM13.0581 115.024C13.0581 115.024 24.2804 101.251 38.8191 107.881L27.0873 120.635L13.0581 115.024Z" fill="#7AACE3"/>
<path d="M17.7974 110.603L20.9967 119.531L33.4426 115.383L29.878 106.488L17.7974 110.603Z" fill="#F7C99B"/>
<path d="M31.1179 84.6103C30.4144 84.474 29.6853 84.5906 29.0595 84.9397C28.4337 85.2887 27.9514 85.8478 27.6978 86.518L24.4575 92.2844L15.0721 75.7099C14.9751 75.535 14.8428 75.3821 14.6836 75.261C14.5245 75.1398 14.3419 75.0531 14.1474 75.0062C13.953 74.9593 13.7509 74.9533 13.554 74.9886C13.3571 75.0239 13.1697 75.0997 13.0037 75.2112C12.725 75.4075 12.5216 75.693 12.4269 76.0204C12.3323 76.3479 12.3521 76.6979 12.4831 77.0126L17.3503 89.1723L7.19087 76.988C7.07102 76.8425 6.92335 76.7224 6.7565 76.6347C6.58966 76.547 6.40699 76.4934 6.21919 76.4772C6.0314 76.461 5.84225 76.4823 5.66282 76.5401C5.48339 76.5979 5.31729 76.6909 5.17424 76.8136C4.89292 77.0606 4.71631 77.4055 4.68036 77.7782C4.64441 78.1508 4.75183 78.5231 4.98075 78.8193L5.05978 78.9311C5.01618 78.9038 14.4916 91.1698 14.4916 91.1698L4.60741 81.1875C4.41199 80.9899 4.15585 80.8637 3.88009 80.8291C3.60433 80.7945 3.32494 80.8535 3.08676 80.9968C2.93673 81.086 2.80722 81.2059 2.70671 81.3486C2.6062 81.4913 2.53696 81.6536 2.50352 81.825C2.47008 81.9963 2.47319 82.1728 2.51265 82.3428C2.5521 82.5128 2.62702 82.6726 2.73249 82.8117L11.2486 94.0994L1.79503 87.6162C1.22547 87.2456 0.775818 87.1829 0.307089 87.6843C0.208654 87.7845 0.130874 87.903 0.0781745 88.0331C-0.0107411 88.2904 -0.024116 88.5678 0.0396314 88.8325C0.103379 89.0971 0.241582 89.338 0.437897 89.5265L17.7972 110.603L29.8861 106.488C29.9709 104.195 29.9182 101.899 29.728 99.6124C29.4064 95.3202 31.1179 84.6103 31.1179 84.6103Z" fill="#F7C99B"/>
<path d="M186.488 281.311C186.406 281.87 186.322 282.431 186.234 282.992H211.281C218.795 222.049 207.147 186.052 207.147 186.052L256.369 43.229C255.346 43.6317 254.28 43.9151 253.192 44.0738C249.191 44.6515 245.289 42.8938 242.498 39.986C236.601 33.8353 228.57 36.4787 228.57 36.4787L171.952 163.864L168.507 164.821C200.642 217.035 186.488 281.311 186.488 281.311ZM48.3736 184.766L110.995 214.743C106.191 229.2 81.5334 260.092 62.152 282.984H87.6242C90.7658 279.544 94.2047 276.388 97.9008 273.552C110.21 264.115 117.882 254.522 117.882 254.522C141.345 222.905 132.164 173.432 132.164 173.432L112.014 178.79L60.2362 156.345L38.8191 107.881C38.8191 107.881 34.2272 106.096 28.1065 112.726C21.9858 119.357 13.0581 115.024 13.0581 115.024L35.2573 170.737C37.7122 176.895 42.3947 181.903 48.3736 184.766Z" fill="#273D62"/>
<path d="M165.191 186.829C165.136 186.829 165.082 186.811 165.038 186.777L156.623 180.782C156.585 180.766 156.55 180.742 156.522 180.712C156.495 180.681 156.474 180.645 156.463 180.605C156.451 180.566 156.449 180.524 156.455 180.483C156.462 180.442 156.478 180.404 156.503 180.37C156.527 180.336 156.558 180.309 156.594 180.289C156.631 180.269 156.671 180.258 156.712 180.256C156.753 180.255 156.795 180.262 156.832 180.279C156.87 180.295 156.904 180.32 156.931 180.351L165.139 186.197L175.568 172.753C175.612 172.699 175.675 172.664 175.744 172.655C175.813 172.646 175.883 172.664 175.939 172.704C175.993 172.749 176.028 172.812 176.037 172.882C176.046 172.951 176.027 173.021 175.985 173.078L165.401 186.723C165.376 186.755 165.344 186.781 165.308 186.799C165.272 186.818 165.232 186.828 165.191 186.829Z" fill="white"/>
<path d="M153.587 190.015C153.558 190.014 153.53 190.009 153.503 190.001L133.484 183.243C133.432 183.21 133.393 183.161 133.373 183.104C133.353 183.046 133.352 182.984 133.372 182.926C133.391 182.868 133.429 182.819 133.48 182.785C133.531 182.752 133.592 182.736 133.653 182.741L153.424 189.415L156.525 180.482C156.549 180.417 156.598 180.363 156.661 180.333C156.724 180.302 156.796 180.297 156.863 180.319C156.928 180.343 156.982 180.392 157.012 180.455C157.042 180.518 157.048 180.59 157.026 180.657L153.838 189.838C153.819 189.889 153.785 189.933 153.74 189.965C153.695 189.996 153.642 190.014 153.587 190.015Z" fill="white"/>
<path d="M153.552 279.697C153.503 279.696 153.456 279.683 153.415 279.658C153.374 279.633 153.34 279.598 153.317 279.555C153.286 279.493 153.281 279.422 153.301 279.355C153.321 279.289 153.366 279.233 153.426 279.198C154.59 278.572 155.369 275.293 156.121 272.113C156.939 268.709 157.702 265.458 159.056 264.42C158.675 264.294 158.585 264.147 158.563 264.008C158.554 263.932 158.571 263.855 158.611 263.789C158.651 263.723 158.712 263.673 158.784 263.646C158.907 263.598 159.04 263.58 159.171 263.594C158.934 263.242 158.691 262.864 158.443 262.474C157.819 261.493 157.173 260.476 156.536 259.844C156.487 259.794 156.46 259.726 156.459 259.656C156.46 259.586 156.487 259.519 156.536 259.468C159.926 256.081 161.084 251.451 162.204 246.973C163.477 221.422 161.659 200.324 156.517 180.626C156.501 180.558 156.513 180.487 156.548 180.428C156.584 180.368 156.64 180.324 156.707 180.305C156.775 180.289 156.845 180.3 156.905 180.335C156.965 180.37 157.009 180.426 157.029 180.493C162.207 200.245 164.008 221.395 162.724 247.049C161.599 251.568 160.446 256.187 157.092 259.659C157.757 260.453 158.357 261.298 158.887 262.188C159.298 262.866 159.747 263.521 160.231 264.15L160.25 264.172C160.282 264.213 160.302 264.263 160.307 264.315C160.312 264.367 160.301 264.42 160.277 264.466V264.48C160.254 264.508 160.226 264.533 160.195 264.553L160.141 264.572C160.115 264.581 160.088 264.581 160.062 264.572H160.04C158.473 264.572 157.511 268.625 156.661 272.203C155.843 275.642 155.075 278.888 153.701 279.626C153.66 279.665 153.608 279.69 153.552 279.697Z" fill="white"/>
<path d="M154.991 196.509C154.991 196.786 155.073 197.057 155.227 197.288C155.381 197.519 155.601 197.699 155.857 197.805C156.114 197.911 156.396 197.939 156.668 197.885C156.94 197.831 157.19 197.697 157.387 197.501C157.583 197.305 157.717 197.055 157.771 196.782C157.825 196.51 157.797 196.228 157.691 195.971C157.585 195.715 157.405 195.496 157.174 195.342C156.943 195.187 156.672 195.105 156.394 195.105C156.022 195.105 155.665 195.253 155.402 195.516C155.139 195.779 154.991 196.136 154.991 196.509Z" fill="white"/>
<path d="M157.031 222.651C157.807 222.651 158.435 222.023 158.435 221.248C158.435 220.472 157.807 219.844 157.031 219.844C156.256 219.844 155.628 220.472 155.628 221.248C155.628 222.023 156.256 222.651 157.031 222.651Z" fill="white"/>
<path d="M156.266 246.881C157.041 246.881 157.669 246.252 157.669 245.477C157.669 244.702 157.041 244.074 156.266 244.074C155.491 244.074 154.862 244.702 154.862 245.477C154.862 246.252 155.491 246.881 156.266 246.881Z" fill="white"/>
<path d="M148.742 275.699C148.742 275.977 148.824 276.248 148.978 276.479C149.132 276.71 149.352 276.89 149.608 276.996C149.865 277.102 150.147 277.13 150.419 277.076C150.691 277.022 150.941 276.888 151.138 276.692C151.334 276.495 151.468 276.245 151.522 275.973C151.576 275.701 151.548 275.419 151.442 275.162C151.336 274.906 151.156 274.687 150.925 274.532C150.694 274.378 150.423 274.296 150.145 274.296C149.773 274.296 149.417 274.445 149.154 274.708C148.891 274.971 148.742 275.327 148.742 275.699Z" fill="white"/>
<path d="M136.122 169.723L136.705 171.055C138.86 173.153 141.546 174.623 144.474 175.308C147.402 175.993 150.462 175.866 153.324 174.941C156.185 174.015 158.74 172.327 160.714 170.058C162.687 167.789 164.004 165.025 164.523 162.062L164.049 160.931L136.122 169.723Z" fill="#EAC198"/>
<path d="M154.276 173.034C156.274 172.179 158.084 170.939 159.602 169.384C161.12 167.83 162.317 165.992 163.125 163.974C163.933 161.957 164.335 159.801 164.31 157.628C164.284 155.455 163.831 153.309 162.975 151.312L156.312 135.748L125.891 148.772L132.554 164.335C134.282 168.368 137.541 171.55 141.614 173.182C145.688 174.813 150.242 174.76 154.276 173.034Z" fill="#F7C99B"/>
<path d="M160.882 152.544C162.182 155.119 163.095 157.277 165.67 155.977C168.245 154.677 171.51 150.41 170.21 147.834C169.901 147.222 169.474 146.676 168.954 146.229C168.434 145.781 167.831 145.44 167.179 145.226C166.527 145.012 165.84 144.928 165.156 144.979C164.471 145.03 163.804 145.216 163.192 145.525C162.579 145.834 162.033 146.261 161.586 146.781C161.138 147.301 160.798 147.904 160.583 148.556C160.369 149.208 160.285 149.895 160.336 150.579C160.387 151.264 160.573 151.931 160.882 152.544ZM134.96 163.101C135.778 165.867 136.612 168.061 133.846 168.886C131.079 169.712 125.776 168.859 124.951 166.096C124.553 164.768 124.699 163.338 125.357 162.118C126.014 160.898 127.129 159.99 128.457 159.592C129.784 159.195 131.215 159.341 132.434 159.998C133.654 160.656 134.563 161.771 134.96 163.098V163.101Z" fill="#F7C99B"/>
<path d="M167.057 145.191C167.057 145.191 169.142 140.362 167.659 135.007C166.801 131.906 163.806 129.786 160.615 130.172L160.473 130.189C160.473 130.189 160.154 119.67 148.551 116.863C136.947 114.056 132.674 128.022 132.674 128.022C132.001 127.507 131.183 127.217 130.336 127.194C129.489 127.171 128.656 127.416 127.956 127.894C127.956 127.894 125.725 129.042 126.681 131.783C126.681 131.783 121.299 128.638 116.031 135.598C109.529 144.226 125.267 162.716 125.267 162.716C125.267 162.716 126.033 159.018 130.622 159.272L127.117 151.813C127.117 151.813 136.233 153.279 137.955 145C137.955 145 144.204 149.954 149.431 146.213C155.042 142.196 156.821 149.499 161.212 147.235C161.223 147.224 163.367 144.183 167.057 145.191Z" fill="#E3593F"/>
<path d="M256.47 0.241894C256.749 0.438211 256.952 0.723648 257.047 1.05112C257.141 1.37859 257.122 1.72854 256.991 2.04323L252.134 14.1893L262.283 2.0187C262.403 1.87321 262.55 1.75309 262.717 1.66538C262.884 1.57767 263.067 1.52412 263.255 1.50787C263.442 1.49163 263.632 1.51302 263.811 1.57079C263.99 1.62855 264.157 1.72153 264.3 1.84429C264.581 2.09128 264.758 2.43621 264.793 2.80884C264.829 3.18147 264.722 3.5538 264.493 3.85002L264.414 3.96448C264.611 3.83174 264.844 3.76084 265.082 3.76084C265.32 3.76084 265.552 3.83174 265.749 3.96448C265.971 4.12371 266.136 4.35021 266.219 4.61038C266.302 4.87056 266.299 5.15055 266.21 5.40881C263.635 9.79088 260.787 14.7507 258.225 19.1273L267.679 12.6414C268.248 12.2708 268.698 12.2081 269.167 12.7095C269.265 12.8097 269.343 12.9282 269.396 13.0584C269.485 13.3157 269.498 13.593 269.434 13.8577C269.37 14.1223 269.232 14.3632 269.036 14.5518L251.677 35.6282L239.596 31.5132C239.511 29.2212 239.564 26.9261 239.754 24.6403C240.067 20.3455 238.356 9.63555 238.356 9.63555C239.061 9.50004 239.792 9.61865 240.418 9.97034C241.044 10.322 241.525 10.8841 241.776 11.5568L245.016 17.3233L254.402 0.748772C254.498 0.573474 254.63 0.420113 254.789 0.298389C254.948 0.176665 255.13 0.0892276 255.325 0.0415902C255.519 -0.00604718 255.721 -0.0128469 255.918 0.0216305C256.116 0.0561079 256.303 0.131112 256.47 0.241894Z" fill="#F7C99B"/>
<path d="M254.985 16.481C254.92 16.4812 254.857 16.4601 254.805 16.421C254.744 16.3732 254.704 16.303 254.695 16.226C254.685 16.1489 254.706 16.0711 254.754 16.0095L264.188 3.76262C264.212 3.7322 264.241 3.70669 264.274 3.68756C264.307 3.66842 264.344 3.65604 264.382 3.65111C264.42 3.64617 264.459 3.64878 264.496 3.6588C264.533 3.66881 264.568 3.68603 264.598 3.70947C264.629 3.73291 264.654 3.76212 264.673 3.79542C264.692 3.82871 264.705 3.86545 264.71 3.90354C264.715 3.94162 264.712 3.98031 264.702 4.01738C264.692 4.05446 264.675 4.08919 264.651 4.11961L255.217 16.3665C255.19 16.4023 255.155 16.4312 255.115 16.4511C255.074 16.471 255.03 16.4812 254.985 16.481Z" fill="#FF9C91"/>
<path d="M141.242 158.683C141.533 159.4 142.201 159.806 142.732 159.591C143.264 159.375 143.46 158.618 143.168 157.898C142.877 157.179 142.209 156.775 141.675 156.991C141.141 157.206 140.95 157.964 141.242 158.683Z" fill="#464646"/>
<path d="M143.548 161.681L141.547 162.499C140.529 162.91 139.39 162.901 138.378 162.474C137.366 162.046 136.566 161.235 136.152 160.218L134.925 157.201L144.616 153.266L145.842 156.283C146.213 157.196 146.246 158.212 145.935 159.147C145.624 160.082 144.991 160.877 144.147 161.387C143.955 161.5 143.755 161.599 143.548 161.681ZM135.721 157.531L136.716 159.983C137.071 160.85 137.754 161.54 138.616 161.904C139.479 162.269 140.45 162.276 141.319 161.926L143.319 161.109C144.185 160.754 144.876 160.071 145.24 159.208C145.604 158.346 145.612 157.374 145.262 156.506L144.267 154.053L135.721 157.531Z" fill="white"/>
<path d="M150.908 154.756C151.2 155.473 151.867 155.882 152.401 155.664C152.936 155.446 153.126 154.691 152.835 153.974C152.543 153.257 151.875 152.849 151.344 153.064C150.813 153.279 150.611 154.037 150.908 154.756Z" fill="#464646"/>
<path d="M155.789 156.716L153.789 157.533C152.771 157.946 151.631 157.937 150.619 157.509C149.607 157.082 148.807 156.27 148.393 155.252L147.167 152.235L156.844 148.306L158.07 151.323C158.442 152.236 158.475 153.252 158.164 154.187C157.854 155.123 157.219 155.917 156.375 156.427C156.187 156.538 155.991 156.634 155.789 156.716ZM147.962 152.565L148.957 155.018C149.312 155.884 149.995 156.575 150.858 156.939C151.72 157.303 152.692 157.311 153.56 156.961L155.56 156.143C156.426 155.789 157.117 155.105 157.481 154.243C157.845 153.38 157.853 152.409 157.503 151.541L156.508 149.088L147.962 152.565ZM155.628 162.88C156.073 164.124 156.014 165.492 155.463 166.693C154.912 167.894 153.914 168.832 152.681 169.307C151.448 169.781 150.079 169.755 148.865 169.233C147.651 168.712 146.69 167.736 146.186 166.515L155.628 162.88Z" fill="white"/>
<path d="M148.061 162.305L148.085 162.289L151.541 159.711C151.575 159.685 151.604 159.653 151.625 159.615C151.647 159.577 151.66 159.536 151.663 159.493C151.667 159.45 151.662 159.407 151.648 159.367C151.634 159.326 151.611 159.289 151.581 159.258L145.041 152.298C144.984 152.245 144.91 152.215 144.832 152.215C144.755 152.215 144.68 152.245 144.623 152.298C144.567 152.351 144.532 152.424 144.527 152.501C144.523 152.579 144.547 152.655 144.597 152.715L150.914 159.427L147.731 161.798C147.664 161.843 147.617 161.913 147.601 161.993C147.586 162.072 147.603 162.155 147.648 162.222C147.693 162.289 147.763 162.336 147.842 162.351C147.922 162.367 148.004 162.35 148.071 162.305H148.061Z" fill="#FF7867"/>
<path d="M137.47 154.021C137.556 154.161 137.691 154.265 137.849 154.311C138.007 154.357 138.176 154.341 138.323 154.268L141.517 152.666C141.734 152.535 141.889 152.324 141.95 152.079C142.011 151.834 141.972 151.575 141.842 151.358C141.773 151.244 141.682 151.146 141.573 151.07C141.464 150.994 141.341 150.942 141.211 150.916C141.081 150.89 140.947 150.892 140.818 150.921C140.688 150.95 140.566 151.006 140.46 151.086L137.645 153.162C137.514 153.258 137.424 153.4 137.391 153.559C137.359 153.718 137.387 153.884 137.47 154.023V154.021ZM152.472 148.134C152.52 148.291 152.506 148.461 152.434 148.609C152.361 148.756 152.236 148.871 152.083 148.93L148.75 150.219C148.63 150.255 148.504 150.267 148.38 150.255C148.256 150.242 148.135 150.205 148.025 150.146C147.915 150.087 147.817 150.006 147.738 149.909C147.659 149.812 147.6 149.701 147.564 149.581C147.527 149.454 147.516 149.32 147.532 149.189C147.549 149.057 147.592 148.931 147.661 148.817C147.729 148.703 147.82 148.605 147.928 148.528C148.036 148.451 148.159 148.398 148.289 148.371L151.718 147.682C151.877 147.648 152.044 147.677 152.183 147.76C152.323 147.844 152.427 147.978 152.472 148.134Z" fill="#464646"/>
<path d="M135.745 157.787L156.672 149.289C156.74 149.263 156.802 149.223 156.854 149.173C156.907 149.122 156.948 149.061 156.977 148.994C157.005 148.927 157.02 148.855 157.02 148.782C157.02 148.709 157.006 148.637 156.977 148.57C156.951 148.502 156.911 148.441 156.86 148.389C156.809 148.337 156.748 148.295 156.681 148.267C156.614 148.239 156.542 148.224 156.47 148.224C156.397 148.225 156.325 148.239 156.258 148.268L135.331 156.765C135.263 156.791 135.201 156.831 135.149 156.881C135.097 156.932 135.055 156.993 135.027 157.06C134.998 157.127 134.984 157.199 134.983 157.272C134.983 157.345 134.998 157.417 135.026 157.484C135.053 157.552 135.093 157.613 135.143 157.665C135.194 157.717 135.255 157.759 135.322 157.787C135.389 157.815 135.461 157.83 135.534 157.83C135.607 157.829 135.678 157.815 135.745 157.787Z" fill="#4B2406"/>
<path d="M421.273 144.714C421.273 144.714 411.506 171.219 427.987 177.362L426.333 196.623L448.549 198.054L453.65 157.413C453.65 157.413 440.907 116.915 421.273 144.714Z" fill="#F7C99B"/>
<path d="M426.333 196.623L404.829 277.89C404.829 277.89 413.579 266.409 435.623 274.792C457.667 283.174 464.662 265.984 464.662 265.984L453.489 241.283L448.535 198.054L437.449 195.288L426.333 196.623Z" fill="#7BADE5"/>
<path d="M437.683 195.053L441.01 205.24L448.709 202.807L448.548 198.054L449.442 188.835L437.683 195.053ZM427.158 187.074L437.683 195.053L431.919 205.412L424.409 202.449L426.333 196.623L427.158 187.074Z" fill="#7BADE5"/>
<path d="M480.084 282.984C474.876 276.988 467.197 268.385 464.665 265.976C464.665 265.976 454.854 281.613 430.502 272.732C428.287 271.885 425.973 271.324 423.616 271.064C418.541 270.584 410.619 271.178 404.812 277.877C404.812 277.877 404.523 279.643 404.242 282.978L480.084 282.984ZM376.053 70.7722C376.053 70.7722 387.117 59.7979 396.173 66.5645L384.471 77.2145C384.471 77.2145 377.999 80.3239 376.053 70.7722ZM544.594 145.802C544.594 145.802 545.771 143.076 541.509 137.106C538.138 131.813 534.544 130.107 528.717 131.069L531.235 145.605C531.235 145.605 535.786 153.266 544.594 145.802Z" fill="#CF413F"/>
<path d="M381.923 68.5701L383.207 75.6365L391.284 73.2465L389.769 66.1829L381.923 68.5701ZM392.273 49.4531C391.393 49.1424 390.42 49.6738 389.99 50.7094L387.518 54.9334L382.986 41.5964C382.792 41.0105 382.226 40.7625 381.738 41.0786C381.538 41.2372 381.388 41.45 381.305 41.6915C381.222 41.9331 381.211 42.1933 381.272 42.4412L383.332 52.0829L377.98 42.0706C377.932 41.9554 377.857 41.8535 377.761 41.7734C377.665 41.6934 377.551 41.6377 377.429 41.611C377.307 41.5842 377.181 41.5873 377.06 41.6198C376.94 41.6524 376.829 41.7135 376.737 41.7981C376.538 41.9924 376.404 42.2445 376.355 42.5187C376.306 42.7929 376.345 43.0755 376.465 43.3269L376.503 43.4168C376.478 43.3923 381.408 53.4264 381.408 53.4264L376.045 45.1228C376.001 45.0446 375.941 44.9762 375.87 44.9214C375.799 44.8666 375.718 44.8266 375.631 44.8037C375.544 44.7808 375.453 44.7756 375.364 44.7883C375.275 44.801 375.19 44.8313 375.113 44.8775C374.901 45.0245 374.747 45.2422 374.68 45.4918C374.613 45.7413 374.637 46.0065 374.748 46.2401L379.157 55.4566L373.786 49.87C373.459 49.5484 373.186 49.4721 372.854 49.8264C372.782 49.8996 372.725 49.9855 372.685 50.0799C372.608 50.2689 372.577 50.4736 372.595 50.677C372.613 50.8803 372.679 51.0764 372.788 51.249L381.929 68.5565L389.774 66.1693C389.774 66.1693 390.074 64.199 390.219 60.877C390.363 57.555 392.273 49.4531 392.273 49.4531ZM539.716 141.531L534.974 146.927L529.284 140.716L534.222 135.443L539.716 141.531Z" fill="#FEDFC1"/>
<path d="M540.694 119.814C541.607 120.002 542.169 120.959 542.005 122.068L541.948 126.973L552.704 117.877C553.17 117.473 553.794 117.555 554.039 118.078C554.128 118.315 554.147 118.573 554.095 118.821C554.042 119.068 553.92 119.296 553.742 119.476L547.006 126.679L556.751 120.836C556.852 120.764 556.969 120.716 557.092 120.698C557.215 120.68 557.341 120.692 557.459 120.733C557.576 120.773 557.683 120.842 557.769 120.932C557.855 121.022 557.918 121.131 557.953 121.25C558.025 121.519 558.011 121.804 557.913 122.065C557.815 122.326 557.639 122.55 557.408 122.706L557.326 122.763C557.359 122.763 547.965 128.815 547.965 128.815L556.841 124.455C556.919 124.411 557.005 124.383 557.095 124.373C557.184 124.362 557.274 124.37 557.361 124.396C557.447 124.421 557.527 124.464 557.596 124.521C557.666 124.578 557.723 124.648 557.765 124.728C557.872 124.965 557.892 125.232 557.819 125.482C557.747 125.732 557.587 125.948 557.37 126.09L548.84 131.737L556.323 129.715C556.767 129.606 557.043 129.682 557.141 130.156C557.164 130.256 557.169 130.36 557.154 130.461C557.123 130.663 557.044 130.855 556.923 131.02C556.803 131.185 556.645 131.318 556.462 131.41L539.713 141.534L534.219 135.446C534.219 135.446 534.977 133.601 536.563 130.682C538.149 127.763 540.694 119.814 540.694 119.814Z" fill="#FEDFC1"/>
<path d="M421.273 144.714C421.273 144.714 417.776 139.351 421.196 132.841C421.196 132.841 426.513 121.24 443.052 125.755C459.591 130.271 455.645 144.859 455.645 144.859C455.645 144.859 460.79 138.163 470.702 142.679C480.613 147.194 478.686 160.147 478.686 160.147C478.686 160.147 476.168 168.9 491.865 169.448C491.865 169.448 500.485 168.767 502.951 175.484C502.951 175.484 509.266 184.545 500.076 194.536C493.729 201.439 500.676 206.698 505.581 209.29C509.075 211.135 511.525 214.607 511.759 218.555C511.993 222.504 510.492 226.706 503.584 228.061C503.584 228.061 515.626 244.03 502.905 258.855C493.729 269.538 482.701 270.522 482.701 270.522L453.896 244.51L449.456 188.857L452.585 163.621C452.585 163.621 444.257 160.646 442.821 150.691C442.393 147.736 441.008 144.943 438.539 143.27C437.057 142.264 434.536 141.58 431.487 141.67C427.881 141.817 424.37 142.864 421.273 144.714Z" fill="#4B2406"/>
<path d="M398.642 211.372C400.34 218.961 404.025 225.965 404.025 225.965C404.025 225.965 396.337 259.049 388.66 282.992H408.477C414.86 257.215 425.51 211.473 427.159 187.066L427.976 177.353C427.976 177.353 419.463 174.83 418.495 163.134C418.33 160.737 418.503 158.329 419.008 155.98L421.261 144.706L396.162 66.5562C396.162 66.5562 391.175 64.7631 383.591 71.5624C381.613 73.3365 378.501 73.361 376.65 71.4561C376.436 71.2359 376.233 71.0049 376.042 70.7639L406.586 199.198C406.586 199.198 396.942 203.779 398.642 211.372ZM473.233 221.768L544.594 145.801C537.822 141.956 536.833 138.236 536.833 138.236C532.603 126.518 526.75 132.056 526.75 132.056L457.364 196.484L457.225 196.509L473.198 221.853L473.233 221.768Z" fill="#243147"/>
<path d="M474.089 282.984H503.921C484.531 269.709 460.896 247.589 460.896 247.589C459.572 240.269 472.993 221.855 473.906 220.61L466.973 191.467L449.445 188.823C444.973 202.011 445.662 224.463 450.69 249.194C452.909 260.128 465.284 274.579 474.089 282.984Z" fill="#243147"/>
<path d="M431.636 272.331C431.567 272.326 431.503 272.295 431.455 272.245C431.408 272.194 431.382 272.128 431.383 272.059C431.383 271.68 431.75 264.613 432.094 257.779C432.413 251.421 432.742 244.842 432.756 244.485C432.781 243.779 434.841 240.242 435.541 239.059L431.453 237.067C431.416 237.05 431.384 237.024 431.359 236.991C431.334 236.958 431.318 236.92 431.312 236.879C431.304 236.839 431.305 236.798 431.317 236.758C431.328 236.719 431.349 236.683 431.377 236.653L434.696 233.11L431.407 231.658C431.356 231.634 431.314 231.595 431.286 231.546C431.258 231.497 431.246 231.441 431.252 231.385L437.435 195.013C437.446 194.954 437.477 194.9 437.522 194.86C437.566 194.82 437.623 194.796 437.683 194.792C437.744 194.789 437.804 194.807 437.853 194.843C437.903 194.879 437.939 194.93 437.956 194.988L440.136 203.164L448.502 199.362C448.534 199.334 448.572 199.315 448.613 199.305C448.654 199.294 448.697 199.294 448.739 199.303C448.78 199.312 448.818 199.331 448.851 199.358C448.884 199.384 448.91 199.418 448.928 199.457C448.945 199.495 448.953 199.538 448.951 199.58C448.95 199.622 448.938 199.663 448.918 199.7C448.898 199.738 448.869 199.769 448.834 199.793C448.799 199.817 448.759 199.833 448.717 199.839L440.07 203.769C440.036 203.785 439.999 203.793 439.961 203.793C439.924 203.793 439.886 203.785 439.852 203.769C439.818 203.752 439.788 203.728 439.764 203.699C439.739 203.67 439.721 203.636 439.711 203.6L437.749 196.288L431.802 231.279L435.241 232.797C435.278 232.815 435.31 232.842 435.335 232.874C435.36 232.907 435.377 232.944 435.385 232.985C435.394 233.025 435.393 233.066 435.383 233.106C435.373 233.145 435.355 233.182 435.329 233.214L432.001 236.757L436.026 238.719C436.058 238.735 436.087 238.758 436.111 238.786C436.134 238.813 436.152 238.845 436.162 238.88C436.172 238.915 436.175 238.951 436.17 238.987C436.165 239.023 436.154 239.058 436.135 239.089C434.961 241.063 433.296 244.049 433.279 244.51C433.279 244.87 432.949 251.157 432.617 257.811C432.274 264.643 431.919 271.71 431.906 272.083C431.9 272.151 431.869 272.213 431.819 272.259C431.769 272.305 431.704 272.331 431.636 272.331Z" fill="white"/>
<path d="M448.652 167.349C448.38 170.491 447.99 173.023 451.132 173.293C454.274 173.563 459.757 171.47 460.027 168.328C460.13 166.834 459.642 165.359 458.669 164.221C457.695 163.083 456.313 162.374 454.821 162.246C453.329 162.117 451.846 162.58 450.692 163.535C449.538 164.49 448.806 165.86 448.652 167.349Z" fill="#F7C99B"/>
<path d="M432.5 202.842C432.443 202.841 432.387 202.822 432.342 202.787L424.646 196.915C424.606 196.899 424.571 196.875 424.542 196.844C424.514 196.812 424.493 196.775 424.482 196.734C424.47 196.693 424.469 196.65 424.477 196.609C424.485 196.567 424.502 196.528 424.528 196.494C424.554 196.461 424.587 196.433 424.626 196.415C424.664 196.397 424.706 196.387 424.748 196.388C424.79 196.388 424.832 196.399 424.87 196.418C424.907 196.438 424.94 196.466 424.965 196.5L432.44 202.204L437.247 195.14C437.293 195.104 437.349 195.083 437.407 195.081C437.466 195.078 437.523 195.095 437.572 195.128C437.62 195.161 437.656 195.209 437.675 195.264C437.694 195.319 437.695 195.379 437.678 195.435L432.718 202.727C432.677 202.786 432.614 202.826 432.543 202.839L432.5 202.842Z" fill="white"/>
<path d="M427.987 177.362C427.987 177.362 437.081 178.882 444.112 174.23C444.112 174.23 442.436 180.556 427.704 181.043L427.987 177.362Z" fill="#FFB2A9"/>
<path d="M435.999 152.088C436.187 152.53 437.544 152.388 438.836 152.906C440.16 153.355 441.092 154.35 441.523 154.143C441.981 153.982 441.479 152.015 439.454 151.254C437.43 150.494 435.756 151.669 435.999 152.088ZM423.981 152.148C424.281 152.524 425.551 152.023 426.938 152.184C428.333 152.26 429.499 152.968 429.859 152.652C430.219 152.336 429.243 150.614 427.088 150.426C424.932 150.238 423.635 151.81 423.981 152.148Z" fill="#4B2406"/>
<path d="M425.172 158.59C424.97 159.533 425.292 160.403 425.891 160.531C426.491 160.659 427.137 159.986 427.338 159.051C427.54 158.116 427.219 157.236 426.619 157.108C426.02 156.98 425.374 157.645 425.172 158.59ZM436.381 160.754C436.179 161.7 436.501 162.569 437.097 162.697C437.694 162.825 438.343 162.152 438.544 161.215C438.746 160.277 438.425 159.4 437.825 159.274C437.225 159.149 436.58 159.806 436.381 160.754Z" fill="#454545"/>
<path d="M429.881 167.818C429.84 167.818 429.799 167.809 429.761 167.793C429.543 167.709 427.632 166.935 427.581 165.829C427.556 165.284 427.94 164.823 428.728 164.425C431.339 163.112 431.374 157.901 431.374 157.849C431.374 157.761 431.409 157.676 431.471 157.613C431.534 157.551 431.618 157.515 431.707 157.514C431.795 157.515 431.88 157.551 431.942 157.613C432.004 157.676 432.039 157.761 432.039 157.849C432.039 158.081 432.001 163.523 429.041 165.019C428.742 165.169 428.243 165.472 428.259 165.796C428.281 166.284 429.3 166.886 430.017 167.175C430.09 167.203 430.151 167.255 430.189 167.323C430.227 167.392 430.24 167.471 430.225 167.548C430.211 167.625 430.169 167.694 430.109 167.743C430.048 167.793 429.972 167.819 429.894 167.818H429.881Z" fill="#FF7867"/>
<path d="M438.662 166.851C437.72 166.848 436.792 166.625 435.952 166.198C435.113 165.771 434.386 165.153 433.829 164.394C433.272 163.634 432.901 162.755 432.747 161.826C432.592 160.897 432.658 159.945 432.939 159.046C433.27 157.983 433.89 157.034 434.729 156.302C435.568 155.571 436.593 155.087 437.691 154.904C438.789 154.721 439.916 154.846 440.947 155.265C441.978 155.685 442.873 156.382 443.531 157.28C444.189 158.177 444.585 159.24 444.675 160.35C444.765 161.459 444.546 162.572 444.041 163.564C443.536 164.556 442.766 165.388 441.817 165.968C440.867 166.549 439.775 166.854 438.662 166.851ZM438.662 155.342C437.493 155.347 436.356 155.724 435.415 156.417C434.475 157.111 433.779 158.086 433.429 159.201C432.996 160.591 433.132 162.096 433.808 163.386C434.484 164.675 435.645 165.643 437.035 166.077C438.424 166.51 439.93 166.374 441.219 165.698C442.509 165.022 443.477 163.861 443.91 162.471C444.125 161.783 444.202 161.058 444.136 160.34C444.071 159.622 443.864 158.923 443.529 158.284C443.193 157.646 442.735 157.08 442.18 156.618C441.626 156.157 440.986 155.81 440.297 155.596C439.761 155.427 439.204 155.342 438.642 155.342H438.662ZM424.662 164.9C424.053 164.899 423.446 164.807 422.864 164.627C421.534 164.213 420.39 163.351 419.625 162.188C418.86 161.025 418.522 159.632 418.668 158.248C418.815 156.863 419.437 155.573 420.429 154.596C421.421 153.618 422.72 153.015 424.107 152.889C425.493 152.763 426.881 153.122 428.032 153.904C429.184 154.686 430.029 155.843 430.423 157.179C430.817 158.514 430.736 159.945 430.193 161.227C429.651 162.509 428.68 163.563 427.447 164.21C426.589 164.663 425.633 164.9 424.662 164.9ZM424.662 153.391C423.35 153.392 422.082 153.863 421.087 154.719C420.092 155.575 419.437 156.758 419.239 158.055C419.041 159.352 419.315 160.677 420.01 161.79C420.705 162.903 421.775 163.731 423.027 164.123C423.782 164.356 424.577 164.424 425.36 164.322C426.143 164.22 426.895 163.95 427.564 163.53C428.233 163.111 428.804 162.553 429.237 161.893C429.671 161.233 429.957 160.487 430.075 159.706C430.194 158.926 430.143 158.129 429.926 157.37C429.709 156.61 429.331 155.907 428.817 155.308C428.303 154.708 427.666 154.227 426.949 153.896C426.232 153.565 425.452 153.393 424.662 153.391Z" fill="white"/>
<path d="M432.9 160.975H432.857L430.194 160.517C430.127 160.503 430.068 160.464 430.029 160.408C429.989 160.352 429.973 160.283 429.982 160.215C429.996 160.148 430.035 160.089 430.091 160.05C430.147 160.01 430.216 159.993 430.284 160.002L432.944 160.46C432.999 160.482 433.045 160.52 433.076 160.57C433.107 160.62 433.121 160.678 433.116 160.737C433.111 160.795 433.088 160.851 433.049 160.895C433.01 160.939 432.958 160.969 432.9 160.981V160.975ZM434.62 170.162C434.483 171.264 433.925 172.269 433.062 172.968C432.199 173.666 431.098 174.002 429.992 173.905C428.886 173.808 427.861 173.286 427.132 172.449C426.403 171.611 426.028 170.524 426.085 169.415L434.62 170.162Z" fill="white"/>
<path d="M432.723 141.479C432.723 141.479 433.582 146.638 420.602 148.374C420.602 148.374 416.953 140.06 421.002 133.347L432.723 141.479Z" fill="#4B2406"/>
<path d="M542.06 183.278C541.47 183.172 540.863 183.278 540.344 183.578C539.825 183.877 539.429 184.35 539.226 184.913L536.582 189.756L528.592 176.026C528.509 175.882 528.398 175.756 528.264 175.657C528.13 175.557 527.977 175.487 527.815 175.45C527.652 175.413 527.484 175.41 527.321 175.441C527.157 175.472 527.002 175.537 526.864 175.631C526.634 175.797 526.466 176.037 526.391 176.311C526.315 176.585 526.335 176.877 526.447 177.138L530.617 187.221L522.035 177.163C521.934 177.043 521.809 176.944 521.669 176.872C521.529 176.801 521.376 176.758 521.22 176.746C521.063 176.735 520.905 176.754 520.756 176.804C520.607 176.854 520.469 176.933 520.351 177.037C520.119 177.245 519.974 177.535 519.948 177.846C519.922 178.157 520.015 178.466 520.209 178.711L520.275 178.806C520.239 178.781 528.262 188.916 528.262 188.916L519.921 180.692C519.756 180.529 519.541 180.426 519.311 180.4C519.081 180.373 518.848 180.424 518.651 180.545C518.527 180.621 518.421 180.723 518.34 180.843C518.258 180.964 518.203 181.1 518.177 181.243C518.151 181.386 518.156 181.533 518.19 181.674C518.225 181.815 518.289 181.948 518.378 182.062L525.594 191.388L517.637 186.077C517.157 185.771 516.784 185.725 516.397 186.148C516.316 186.232 516.252 186.331 516.209 186.439C516.137 186.655 516.128 186.887 516.184 187.107C516.24 187.327 516.358 187.527 516.525 187.682L531.208 205.085L541.242 201.542C541.29 199.632 541.222 197.721 541.041 195.819C540.738 192.236 542.06 183.278 542.06 183.278Z" fill="#F7C99B"/>
<path d="M601.215 95.4919C601.215 95.4919 594.22 129.131 614.296 131.941L614.326 142.414L626.81 151.085L643.807 140.16L647.72 141.485L642.084 100.032L601.215 95.4919Z" fill="#F7C99B"/>
<path d="M601.215 95.4919C601.215 95.4919 606.477 104.834 618.187 98.7158C618.187 98.7158 622.346 97.067 624.049 101.94C624.649 103.657 625.48 105.657 627.118 106.641C627.404 106.826 627.727 106.946 628.064 106.993C628.402 107.04 628.746 107.013 629.071 106.913C629.527 106.75 629.889 106.409 630.295 106.142C632.222 104.858 635.048 105.471 636.544 107.232C639.631 110.886 637.201 116.547 632.434 116.792C631.593 116.836 630.748 116.811 629.911 116.716C629.911 116.716 630.619 125.602 645.349 124.035L642.88 96.5275C642.88 96.5275 643.251 89.5865 637.157 92.5705L637.541 87.9377C637.541 87.9377 631.497 93.9495 620.335 88.8125C609.172 83.6756 603.24 79.8494 598.432 85.8693C593.625 91.8892 597.285 98.2062 600.523 99.3344L601.215 95.4919Z" fill="#464646"/>
<path d="M614.288 131.947C614.288 131.947 626.167 132.099 632.001 125.763C632.001 125.763 629.091 134.241 614.288 136.544V131.947Z" fill="#E0B88F"/>
<path d="M619.305 112.091C619.425 112.849 619.065 113.538 618.503 113.625C617.942 113.712 617.386 113.17 617.269 112.41C617.152 111.649 617.509 110.963 618.07 110.876C618.631 110.788 619.185 111.331 619.305 112.091Z" fill="#464646"/>
<path d="M618.231 115.868C617.251 115.866 616.305 115.515 615.562 114.876C614.819 114.238 614.328 113.356 614.178 112.388L613.677 109.197L623.913 107.587L624.414 110.778C624.499 111.311 624.477 111.856 624.351 112.381C624.225 112.906 623.996 113.401 623.679 113.837C623.361 114.274 622.96 114.644 622.5 114.925C622.039 115.207 621.527 115.395 620.994 115.479L618.876 115.811C618.663 115.846 618.447 115.866 618.231 115.868ZM614.369 109.709L614.778 112.304C614.923 113.222 615.426 114.044 616.177 114.591C616.928 115.138 617.866 115.364 618.784 115.22L620.898 114.887C621.353 114.816 621.789 114.656 622.182 114.416C622.575 114.176 622.916 113.861 623.188 113.489C623.459 113.117 623.654 112.695 623.762 112.248C623.87 111.8 623.889 111.336 623.817 110.881L623.408 108.29L614.369 109.709Z" fill="white"/>
<path d="M609.08 113.699C609.2 114.456 608.84 115.146 608.276 115.233C607.712 115.32 607.161 114.778 607.042 114.018C606.922 113.257 607.281 112.571 607.859 112.483C608.437 112.396 608.96 112.933 609.08 113.699Z" fill="#464646"/>
<path d="M605.297 117.904C604.319 117.901 603.374 117.549 602.631 116.913C601.889 116.276 601.397 115.395 601.245 114.429L600.744 111.238L610.979 109.63L611.484 112.821C611.651 113.898 611.385 114.997 610.744 115.878C610.102 116.759 609.137 117.349 608.061 117.519L605.946 117.852C605.731 117.885 605.515 117.903 605.297 117.904ZM601.439 111.742L601.845 114.336C601.989 115.254 602.493 116.077 603.244 116.624C603.995 117.17 604.933 117.397 605.851 117.252L607.965 116.92C608.883 116.775 609.706 116.272 610.253 115.521C610.801 114.77 611.027 113.832 610.884 112.914L610.475 110.322L601.439 111.742ZM612.952 121.362C613.223 122.635 613.977 123.752 615.056 124.48C616.134 125.208 617.453 125.489 618.735 125.263C620.016 125.038 621.16 124.324 621.926 123.272C622.692 122.22 623.019 120.912 622.839 119.623L612.952 121.362Z" fill="white"/>
<path d="M612.247 108.45L610.238 117.716L614.495 118.138L612.247 108.45Z" fill="#FEDFC1"/>
<path d="M614.494 118.441H614.465L610.208 118.018C610.165 118.014 610.125 118 610.088 117.979C610.051 117.958 610.018 117.93 609.993 117.896C609.968 117.861 609.951 117.821 609.942 117.78C609.933 117.738 609.933 117.695 609.941 117.653L611.949 108.388C611.972 108.314 612.021 108.253 612.087 108.214C612.153 108.176 612.232 108.163 612.306 108.18C612.381 108.196 612.447 108.24 612.491 108.303C612.535 108.366 612.553 108.443 612.543 108.518L610.619 117.449L614.538 117.836C614.618 117.84 614.694 117.875 614.748 117.935C614.802 117.994 614.83 118.073 614.826 118.153C614.822 118.233 614.786 118.309 614.726 118.363C614.667 118.417 614.588 118.445 614.508 118.441H614.494Z" fill="#FF7867"/>
<path d="M620.158 105.303C620.157 105.466 620.095 105.623 619.984 105.742C619.873 105.862 619.721 105.936 619.558 105.949L616.015 106.221C615.765 106.221 615.525 106.122 615.349 105.945C615.172 105.768 615.072 105.528 615.072 105.278C615.072 105.147 615.1 105.016 615.153 104.896C615.206 104.775 615.283 104.667 615.38 104.579C615.478 104.49 615.592 104.422 615.717 104.38C615.842 104.339 615.974 104.323 616.105 104.335L619.561 104.66C619.723 104.673 619.873 104.747 619.984 104.866C620.094 104.985 620.156 105.14 620.158 105.303ZM605.6 108.715C605.64 108.873 605.738 109.01 605.875 109.099C606.012 109.188 606.177 109.222 606.338 109.194L609.829 108.573C609.95 108.542 610.063 108.488 610.162 108.414C610.262 108.34 610.346 108.247 610.41 108.14C610.473 108.033 610.515 107.915 610.533 107.792C610.551 107.669 610.544 107.543 610.513 107.423C610.48 107.296 610.421 107.177 610.34 107.073C610.259 106.97 610.157 106.885 610.04 106.823C609.924 106.761 609.797 106.724 609.666 106.714C609.534 106.705 609.403 106.722 609.279 106.766L606.009 107.935C605.857 107.989 605.731 108.098 605.655 108.24C605.58 108.382 605.56 108.548 605.6 108.704V108.715Z" fill="#464646"/>
<path d="M623.518 108.518L601.384 111.998C601.313 112.01 601.24 112.007 601.17 111.991C601.1 111.974 601.034 111.944 600.976 111.901C600.917 111.859 600.868 111.806 600.83 111.744C600.793 111.683 600.768 111.614 600.757 111.543C600.745 111.472 600.748 111.399 600.765 111.329C600.782 111.258 600.812 111.192 600.855 111.134C600.897 111.076 600.951 111.026 601.013 110.989C601.075 110.952 601.143 110.927 601.215 110.916L623.349 107.436C623.42 107.425 623.493 107.427 623.563 107.444C623.633 107.461 623.7 107.492 623.758 107.534C623.816 107.577 623.866 107.63 623.903 107.692C623.94 107.754 623.965 107.823 623.976 107.894C623.987 107.965 623.984 108.038 623.967 108.108C623.95 108.178 623.919 108.244 623.877 108.302C623.834 108.36 623.78 108.409 623.719 108.446C623.657 108.483 623.589 108.508 623.518 108.518Z" fill="#FFA680"/>
<path d="M622.537 264.327C622.73 265.137 622.815 265.969 622.79 266.802V266.821L624.45 282.992H661.48L655.179 219.332L655.149 219.029L655.081 218.329L655.048 218.018L654.994 217.473L654.947 217.007L654.909 216.615L654.882 216.342V216.315L654.841 215.901L654.819 215.691L654.773 215.195L654.757 215.045L654.661 214.078L654.645 213.909L647.091 137.604L627.448 149.529L614.291 141.051L614.326 137.604L609.919 141.256L622.39 262.883L622.537 264.327Z" fill="#57934D"/>
<path d="M567.237 229.377L546.799 195.609L524.123 207.327L547.303 250.543C547.303 250.543 549.156 253.898 549.311 254.236C555.454 267.682 571.957 268.788 582.918 258.869C583.253 258.566 583.594 258.236 583.932 257.915L567.581 229.05L567.237 229.377Z" fill="#57934D"/>
<path d="M584.028 282.984H624.483C622.03 257.329 610.797 141.06 609.917 141.239C579.468 147.442 560.744 164.948 554.645 190.061C551.23 204.12 551.617 243.66 551.674 248.396L583.897 258.1C583.992 252.628 583.24 244.929 583.687 237.348L584.028 282.984Z" fill="#57934D"/>
<path d="M583.687 251.644C583.608 251.644 583.531 251.613 583.475 251.558C583.418 251.502 583.386 251.427 583.384 251.347L581.785 181.986C581.785 181.906 581.817 181.829 581.873 181.772C581.93 181.716 582.007 181.684 582.087 181.684C582.167 181.684 582.244 181.716 582.301 181.772C582.358 181.829 582.39 181.906 582.39 181.986L583.989 251.347C583.99 251.387 583.984 251.427 583.969 251.464C583.955 251.501 583.934 251.535 583.907 251.564C583.879 251.592 583.846 251.616 583.81 251.632C583.774 251.648 583.735 251.657 583.695 251.658L583.687 251.644Z" fill="#333333"/>
<path d="M707.091 282.984C707.2 279.076 707.308 275.17 707.415 271.266C711.817 271.199 716.084 269.74 719.605 267.096C719.716 267.014 719.825 266.93 719.932 266.845C722.272 264.978 724.105 262.551 725.26 259.788C726.415 257.026 726.855 254.017 726.54 251.039L721.97 206.134C721.437 201.871 720.618 197.648 719.517 193.495C713.558 171.279 699.695 153.732 677.711 146.973L651.151 138.822L647.088 137.61L661.376 282.984H707.091Z" fill="#57934D"/>
<path d="M638.637 281.643C638.547 281.643 638.459 281.61 638.391 281.551C638.323 281.492 638.277 281.411 638.264 281.321C638.106 280.256 638.043 279.242 637.991 278.261C637.959 277.683 637.923 277.084 637.866 276.476C637.716 274.598 637.525 272.688 637.34 270.843C637.155 268.998 636.964 267.08 636.814 265.197C636.776 264.619 636.746 264.036 636.719 263.472C636.671 261.745 636.503 260.024 636.217 258.321C635.985 256.931 635.285 255.822 634.544 254.645C634.369 254.372 634.19 254.083 634.015 253.794C633.827 253.539 633.698 253.246 633.638 252.935C633.577 252.623 633.587 252.303 633.666 251.996C633.84 251.459 634.081 250.946 634.383 250.47C634.653 250.052 634.868 249.601 635.024 249.129C635.231 248.311 634.454 247.835 633.416 247.317C633.059 247.157 632.74 246.923 632.479 246.632C632.218 246.341 632.021 245.999 631.9 245.627C631.817 245.314 631.801 244.986 631.855 244.666C631.909 244.345 632.03 244.041 632.211 243.771C632.225 243.746 632.243 243.723 632.263 243.703C632.381 243.553 632.46 243.376 632.492 243.188C632.528 243.037 632.579 242.89 632.644 242.749C632.658 242.721 632.675 242.696 632.696 242.673C633.702 241.498 634.331 240.534 634.702 239.555C633.214 220.962 631.584 202.112 630.009 183.883C629.039 172.658 628.033 161.051 627.074 149.614C627.07 149.564 627.075 149.514 627.09 149.467C627.105 149.42 627.13 149.376 627.162 149.337C627.194 149.299 627.233 149.268 627.277 149.245C627.321 149.222 627.369 149.208 627.419 149.204C627.469 149.2 627.518 149.205 627.566 149.22C627.613 149.235 627.657 149.259 627.695 149.291C627.733 149.323 627.765 149.362 627.788 149.407C627.811 149.451 627.825 149.499 627.829 149.549C628.788 160.994 629.794 172.593 630.764 183.818C632.342 202.076 633.974 220.959 635.465 239.583C635.47 239.637 635.463 239.692 635.443 239.743C635.037 240.834 634.378 241.869 633.304 243.125C633.271 243.214 633.244 243.306 633.222 243.398C633.163 243.699 633.029 243.98 632.832 244.215C632.715 244.393 632.636 244.593 632.602 244.803C632.567 245.013 632.577 245.228 632.631 245.434C632.724 245.702 632.872 245.949 633.066 246.158C633.259 246.367 633.493 246.535 633.754 246.649C634.699 247.123 636.13 247.837 635.757 249.336C635.583 249.873 635.342 250.386 635.04 250.862C634.77 251.28 634.555 251.731 634.399 252.203C634.346 252.407 634.341 252.621 634.384 252.828C634.428 253.035 634.519 253.228 634.65 253.394C634.819 253.666 634.999 253.963 635.173 254.239C635.923 255.424 636.697 256.653 636.953 258.187C637.244 259.921 637.415 261.673 637.465 263.431C637.493 263.992 637.52 264.573 637.558 265.139C637.708 267.012 637.899 268.919 638.084 270.767C638.269 272.614 638.46 274.528 638.61 276.408C638.667 277.024 638.702 277.629 638.738 278.212C638.798 279.223 638.852 280.177 639.01 281.21C639.018 281.259 639.015 281.309 639.003 281.357C638.991 281.406 638.97 281.451 638.94 281.491C638.911 281.531 638.873 281.565 638.831 281.59C638.788 281.616 638.741 281.633 638.692 281.64L638.637 281.643Z" fill="white"/>
<path d="M618.795 154.947C618.735 154.947 618.677 154.933 618.624 154.906C618.571 154.879 618.525 154.84 618.49 154.792L609.731 142.768C609.672 142.687 609.647 142.586 609.663 142.486C609.678 142.387 609.733 142.298 609.814 142.238C609.895 142.179 609.997 142.155 610.096 142.17C610.196 142.186 610.285 142.24 610.344 142.321L618.901 154.07L627.246 149.252C627.304 149.219 627.369 149.202 627.435 149.202C627.501 149.202 627.566 149.219 627.624 149.252L634.459 153.2L647.485 143.722C647.526 143.693 647.571 143.672 647.62 143.66C647.668 143.648 647.719 143.646 647.768 143.654C647.817 143.662 647.864 143.679 647.907 143.705C647.949 143.731 647.986 143.765 648.016 143.805C648.045 143.846 648.066 143.891 648.078 143.94C648.089 143.988 648.091 144.038 648.084 144.088C648.076 144.137 648.059 144.184 648.033 144.226C648.007 144.269 647.973 144.306 647.932 144.335L634.707 153.958C634.647 154 634.577 154.025 634.503 154.029C634.43 154.033 634.357 154.016 634.293 153.98L627.434 150.017L618.986 154.898C618.927 154.93 618.862 154.947 618.795 154.947Z" fill="white"/>
<path d="M624.962 163.109C625.892 163.109 626.646 162.355 626.646 161.425C626.646 160.494 625.892 159.74 624.962 159.74C624.032 159.74 623.278 160.494 623.278 161.425C623.278 162.355 624.032 163.109 624.962 163.109Z" fill="white"/>
<path d="M627.766 200.436C628.696 200.436 629.45 199.682 629.45 198.752C629.45 197.821 628.696 197.067 627.766 197.067C626.836 197.067 626.082 197.821 626.082 198.752C626.082 199.682 626.836 200.436 627.766 200.436Z" fill="white"/>
<path d="M632.255 234.203C632.255 234.537 632.156 234.863 631.97 235.141C631.785 235.418 631.521 235.634 631.213 235.762C630.904 235.889 630.565 235.923 630.238 235.857C629.91 235.792 629.61 235.631 629.374 235.395C629.138 235.159 628.978 234.858 628.913 234.531C628.848 234.203 628.882 233.864 629.01 233.556C629.138 233.247 629.355 232.984 629.633 232.799C629.91 232.614 630.237 232.516 630.57 232.516C630.792 232.516 631.011 232.56 631.216 232.645C631.42 232.729 631.606 232.854 631.762 233.01C631.919 233.167 632.043 233.353 632.127 233.558C632.212 233.762 632.255 233.982 632.255 234.203ZM636.193 275.781C636.193 276.115 636.094 276.441 635.908 276.718C635.723 276.996 635.459 277.212 635.151 277.339C634.843 277.467 634.504 277.501 634.177 277.435C633.849 277.37 633.549 277.21 633.313 276.974C633.077 276.738 632.916 276.437 632.851 276.11C632.786 275.783 632.819 275.444 632.947 275.135C633.075 274.827 633.291 274.564 633.568 274.378C633.846 274.193 634.172 274.094 634.506 274.094C634.953 274.094 635.382 274.272 635.698 274.588C636.015 274.905 636.193 275.334 636.193 275.781Z" fill="white"/>
<path d="M528.914 211.437C528.638 211.157 528.45 210.801 528.376 210.415C528.302 210.028 528.344 209.629 528.497 209.266C528.65 208.903 528.907 208.594 529.236 208.378C529.564 208.162 529.95 208.047 530.343 208.05C530.737 208.053 531.121 208.172 531.446 208.393C531.772 208.614 532.025 208.926 532.173 209.291C532.321 209.656 532.358 210.056 532.278 210.441C532.199 210.827 532.007 211.18 531.726 211.456C531.35 211.826 530.843 212.031 530.316 212.028C529.789 212.024 529.285 211.812 528.914 211.437ZM531.315 209.072C531.122 208.878 530.875 208.747 530.607 208.694C530.339 208.64 530.062 208.668 529.809 208.772C529.557 208.877 529.341 209.054 529.189 209.281C529.037 209.508 528.956 209.775 528.956 210.049C528.956 210.322 529.037 210.589 529.189 210.816C529.341 211.043 529.557 211.221 529.809 211.325C530.062 211.43 530.339 211.457 530.607 211.404C530.875 211.35 531.122 211.219 531.315 211.026C531.444 210.898 531.546 210.746 531.616 210.578C531.686 210.41 531.722 210.231 531.722 210.049C531.722 209.868 531.687 209.688 531.617 209.52C531.548 209.352 531.446 209.2 531.318 209.072H531.315ZM529.797 218.555C529.777 218.535 529.759 218.512 529.745 218.487C529.707 218.416 529.699 218.333 529.722 218.256C529.745 218.179 529.797 218.114 529.868 218.076L549.385 207.496C549.458 207.458 549.542 207.45 549.62 207.474C549.699 207.498 549.764 207.552 549.802 207.625C549.841 207.697 549.849 207.781 549.825 207.86C549.801 207.938 549.747 208.003 549.674 208.042L530.157 218.623C530.097 218.653 530.03 218.662 529.965 218.65C529.9 218.638 529.841 218.604 529.797 218.555Z" fill="#333333"/>
<path d="M679.446 275.078L642.103 280.144L637.926 254.342L681.88 245.575L679.446 275.078Z" fill="#57934D"/>
<path d="M648.731 252.489C648.661 252.489 648.594 252.464 648.54 252.42C648.486 252.376 648.448 252.315 648.434 252.246C648.426 252.207 648.426 252.167 648.434 252.128C648.442 252.088 648.457 252.051 648.479 252.018C648.502 251.985 648.53 251.956 648.564 251.934C648.597 251.912 648.635 251.897 648.674 251.889L690.955 243.441L679.839 176.776C679.832 176.736 679.833 176.696 679.842 176.657C679.851 176.619 679.868 176.582 679.891 176.55C679.914 176.517 679.943 176.49 679.977 176.469C680.01 176.448 680.048 176.433 680.087 176.427C680.126 176.42 680.166 176.421 680.205 176.43C680.244 176.439 680.28 176.455 680.313 176.478C680.345 176.502 680.373 176.531 680.394 176.564C680.415 176.598 680.429 176.636 680.436 176.675L691.609 243.646C691.622 243.723 691.605 243.803 691.56 243.868C691.515 243.933 691.447 243.977 691.369 243.992L648.799 252.483L648.731 252.489ZM642.368 280.436C642.291 280.436 642.217 280.407 642.161 280.354C642.105 280.302 642.071 280.23 642.066 280.154C642.06 280.077 642.085 280.001 642.133 279.942C642.182 279.882 642.251 279.844 642.327 279.833L707.363 270.963C707.439 270.96 707.513 270.985 707.572 271.034C707.63 271.083 707.668 271.151 707.678 271.227C707.689 271.302 707.67 271.379 707.627 271.441C707.584 271.504 707.519 271.548 707.445 271.565L642.401 280.433L642.368 280.436ZM646.183 275.827C646.042 275.827 645.901 275.811 645.763 275.781C645.379 275.698 645.027 275.503 644.754 275.221C644.48 274.938 644.296 274.581 644.226 274.194C644.156 273.807 644.202 273.408 644.359 273.047C644.515 272.686 644.776 272.38 645.107 272.167C645.325 272.024 645.57 271.926 645.827 271.88C646.084 271.833 646.348 271.838 646.603 271.895C647.081 272 647.504 272.278 647.79 272.675C648.077 273.073 648.206 273.562 648.154 274.049C648.102 274.536 647.872 274.987 647.509 275.315C647.145 275.643 646.673 275.826 646.183 275.827ZM646.183 272.454C645.85 272.466 645.533 272.598 645.29 272.825C645.047 273.053 644.893 273.36 644.858 273.691C644.823 274.022 644.909 274.355 645.099 274.628C645.289 274.901 645.571 275.097 645.894 275.179C646.251 275.253 646.624 275.184 646.93 274.985C647.236 274.787 647.451 274.475 647.529 274.119C647.604 273.761 647.534 273.389 647.336 273.083C647.137 272.777 646.826 272.561 646.469 272.483C646.374 272.463 646.277 272.453 646.18 272.454H646.183Z" fill="#333333"/>
<path d="M653.726 278.896C653.654 278.896 653.584 278.87 653.529 278.823C653.474 278.776 653.438 278.711 653.426 278.64L649.796 255.765C649.79 255.725 649.792 255.685 649.801 255.646C649.81 255.608 649.827 255.571 649.85 255.539C649.874 255.506 649.903 255.479 649.937 255.458C649.971 255.437 650.009 255.423 650.048 255.417C650.088 255.411 650.128 255.413 650.167 255.422C650.205 255.431 650.242 255.448 650.274 255.471C650.307 255.495 650.334 255.524 650.355 255.558C650.376 255.592 650.39 255.63 650.396 255.669L654.026 278.544C654.038 278.624 654.019 278.705 653.972 278.77C653.925 278.836 653.854 278.88 653.775 278.893L653.726 278.896Z" fill="#333333"/>
<path d="M613.162 278.198L615.465 275.222L615.283 282.035C615.28 282.218 615.32 282.399 615.399 282.564C615.478 282.729 615.594 282.874 615.738 282.986H617.228C617.444 282.819 617.595 282.582 617.656 282.316L618.602 277.858L622.597 272.582L619.011 277.533L619.215 283H621.586L622.586 278.858L625.426 275.07C625.453 275.033 625.492 275.005 625.536 274.992C625.58 274.979 625.628 274.98 625.671 274.996C625.7 275.007 625.727 275.024 625.748 275.046C625.77 275.069 625.787 275.095 625.798 275.124C625.808 275.154 625.813 275.185 625.81 275.216C625.807 275.247 625.798 275.277 625.783 275.304L623.692 278.991L622.826 283H625.791L627.252 280.365L629.113 277.261L632.021 275.645C636.574 277.326 638.972 274.686 638.972 274.686L641.264 275.029L638.891 260.185C637.386 260.56 635.904 261.021 634.451 261.564L622.112 266.039L615.953 269.734C615.315 270.118 614.803 270.681 614.481 271.353L611.647 277.272C611.555 277.471 611.539 277.697 611.603 277.907C611.666 278.116 611.804 278.296 611.99 278.411C612.177 278.526 612.399 278.569 612.615 278.531C612.831 278.494 613.026 278.378 613.162 278.206V278.198Z" fill="#F7C99B"/>
<path d="M615.696 275.424H615.677C615.657 275.421 615.638 275.415 615.621 275.405C615.603 275.395 615.588 275.381 615.576 275.365C615.564 275.349 615.555 275.331 615.55 275.312C615.545 275.292 615.544 275.272 615.546 275.252L615.595 274.879C615.667 274.342 615.921 273.845 616.315 273.473L620.89 269.167C620.919 269.139 620.958 269.123 620.998 269.123C621.038 269.123 621.077 269.139 621.106 269.167C621.12 269.181 621.131 269.197 621.139 269.216C621.147 269.234 621.151 269.254 621.151 269.273C621.151 269.293 621.147 269.313 621.139 269.331C621.131 269.349 621.12 269.366 621.106 269.38L616.533 273.688C616.189 274.012 615.966 274.444 615.903 274.912L615.854 275.288C615.853 275.307 615.848 275.326 615.839 275.343C615.83 275.361 615.818 275.376 615.804 275.389C615.789 275.402 615.772 275.411 615.753 275.417C615.735 275.423 615.715 275.426 615.696 275.424ZM619.086 277.727C619.069 277.731 619.052 277.731 619.034 277.727C619.016 277.72 618.998 277.71 618.983 277.697C618.968 277.684 618.956 277.668 618.948 277.649C618.94 277.631 618.935 277.612 618.934 277.592C618.934 277.572 618.937 277.552 618.945 277.533L619.089 277.141C619.094 277.126 619.102 277.112 619.114 277.1L622.495 272.838C622.507 272.819 622.522 272.803 622.539 272.791C622.557 272.779 622.578 272.77 622.599 272.766C622.62 272.762 622.642 272.763 622.663 272.768C622.684 272.774 622.704 272.783 622.721 272.797C622.738 272.81 622.752 272.827 622.762 272.847C622.772 272.866 622.778 272.887 622.779 272.909C622.78 272.93 622.776 272.952 622.768 272.972C622.76 272.993 622.748 273.011 622.733 273.026L619.364 277.261L619.228 277.629C619.217 277.658 619.198 277.683 619.173 277.7C619.147 277.718 619.117 277.727 619.086 277.727Z" fill="#FF7867"/>
<path d="M574.746 243.583C574.683 243.583 574.622 243.566 574.568 243.534C574.513 243.503 574.469 243.458 574.438 243.403L553.119 206.638C553.095 206.597 553.08 206.553 553.074 206.506C553.068 206.46 553.071 206.412 553.083 206.367C553.095 206.322 553.116 206.279 553.145 206.242C553.173 206.205 553.209 206.174 553.249 206.15C553.29 206.127 553.335 206.112 553.381 206.105C553.428 206.099 553.475 206.102 553.52 206.115C553.566 206.127 553.608 206.148 553.645 206.176C553.683 206.205 553.714 206.24 553.737 206.281L575.067 243.046C575.114 243.128 575.127 243.225 575.103 243.316C575.079 243.408 575.02 243.486 574.939 243.534C574.88 243.568 574.813 243.585 574.746 243.583Z" fill="#333333"/>
</svg>
