<svg width="60" height="60" viewBox="0 0 60 60" fill="none" xmlns="http://www.w3.org/2000/svg">
<circle cx="29.5" cy="32.5" r="27.5" fill="white"/>
<path d="M57.2006 7.49628C57.4493 7.49628 57.6877 7.39751 57.8636 7.22169C58.0394 7.04587 58.1381 6.80742 58.1381 6.55878C58.1381 6.31014 58.0394 6.07168 57.8636 5.89586C57.6877 5.72005 57.4493 5.62128 57.2006 5.62128H23.4506C23.202 5.62128 22.9635 5.72005 22.7877 5.89586C22.6119 6.07168 22.5131 6.31014 22.5131 6.55878C22.5131 6.80742 22.6119 7.04587 22.7877 7.22169C22.9635 7.39751 23.202 7.49628 23.4506 7.49628H24.3881V29.9963H23.4506C23.202 29.9963 22.9635 30.0951 22.7877 30.2709C22.6119 30.4467 22.5131 30.6851 22.5131 30.9338C22.5131 31.1824 22.6119 31.4209 22.7877 31.5967C22.9635 31.7725 23.202 31.8713 23.4506 31.8713H27.5569L20.7694 37.6838C20.3865 38.0094 19.9238 38.2273 19.4289 38.3149C18.9339 38.4026 18.4246 38.3569 17.9531 38.1825L16.9125 37.7907V35.6307C17.4991 35.1079 17.969 34.4673 18.2914 33.7507C18.6138 33.0342 18.7816 32.2577 18.7838 31.4719V29.1919L19.8731 25.2863C19.9503 24.8684 19.9433 24.4392 19.8526 24.0241C19.7619 23.6089 19.5893 23.2159 19.3448 22.8683C19.1004 22.5207 18.789 22.2253 18.429 21.9995C18.069 21.7736 17.6675 21.6219 17.2481 21.5532L11.9044 20.6607C11.4518 20.5832 10.9876 20.6064 10.545 20.7286C10.1023 20.8507 9.69199 21.0689 9.34314 21.3675C8.83502 21.7969 8.48065 22.3725 8.32127 23.0288C7.80605 23.1937 7.35042 23.5059 7.01064 23.9269C6.48189 24.5832 6.27752 25.4288 6.48752 26.3644L7.53564 29.3644V31.4738C7.53564 33.1069 8.24627 34.5675 9.36377 35.5969V37.7907L4.90502 39.4632C4.01338 39.801 3.24526 40.4014 2.70223 41.1852C2.1592 41.9689 1.86683 42.899 1.86377 43.8525V53.4413C1.86377 53.6899 1.96254 53.9284 2.13836 54.1042C2.31417 54.28 2.55263 54.3788 2.80127 54.3788C3.04991 54.3788 3.28837 54.28 3.46418 54.1042C3.64 53.9284 3.73877 53.6899 3.73877 53.4413V43.8525C3.73877 42.6863 4.47377 41.6269 5.56502 41.2182L9.63002 39.6938C9.90531 40.4012 10.3875 41.0092 11.0137 41.4384C11.6399 41.8675 12.3809 42.0979 13.14 42.0994C14.7375 42.0994 16.0988 41.0982 16.65 39.6919L17.2969 39.9357C18.8981 40.5394 20.6944 40.2169 21.9919 39.1088L29.9625 32.2819L30.9188 33.2381L31.9519 34.2713L19.575 46.6482C19.05 47.1732 18.75 47.9025 18.7519 48.6469L18.7669 53.445C18.7679 53.693 18.8671 53.9305 19.0428 54.1055C19.2185 54.2805 19.4564 54.3788 19.7044 54.3788H19.7081C19.8313 54.3783 19.9531 54.3535 20.0666 54.306C20.1802 54.2584 20.2833 54.1889 20.37 54.1015C20.4567 54.0141 20.5253 53.9105 20.572 53.7966C20.6186 53.6826 20.6424 53.5606 20.6419 53.4375L20.6269 48.6394C20.6264 48.39 20.7248 48.1506 20.9006 47.9738L33.9394 34.935L35.4544 33.42C35.8738 33.0006 36.1479 32.4578 36.2363 31.8713H57.2044C57.453 31.8713 57.6915 31.7725 57.8673 31.5967C58.0431 31.4209 58.1419 31.1824 58.1419 30.9338C58.1419 30.6851 58.0431 30.4467 57.8673 30.2709C57.6915 30.0951 57.453 29.9963 57.2044 29.9963H56.2669V7.49628H57.2006ZM9.41064 31.47V29.5032L10.7194 28.1738H15.5569L16.9106 29.5482V31.4719C16.9106 33.54 15.2288 35.2219 13.1606 35.2219C11.0925 35.2219 9.41064 33.5382 9.41064 31.47ZM8.4694 25.1063C8.55299 25.0022 8.65889 24.9181 8.77928 24.8603C8.89967 24.8026 9.03149 24.7726 9.16502 24.7725C9.68252 24.7725 10.1025 24.2944 10.1025 23.7769C10.1034 23.5908 10.1445 23.4071 10.2232 23.2384C10.3018 23.0697 10.4161 22.9201 10.5581 22.7998C10.7002 22.6795 10.8666 22.5915 11.0459 22.5416C11.2252 22.4918 11.4132 22.4815 11.5969 22.5113L16.9406 23.4038C17.1145 23.432 17.2809 23.4949 17.43 23.5886C17.5791 23.6823 17.7079 23.805 17.8088 23.9494C18.0002 24.2145 18.0858 24.5414 18.0488 24.8663L17.3588 27.3319L16.6181 26.58C16.531 26.4915 16.4271 26.4212 16.3125 26.3732C16.1979 26.3252 16.0749 26.3006 15.9506 26.3007H10.3256C10.2014 26.3007 10.0784 26.3254 9.96385 26.3733C9.84926 26.4213 9.74535 26.4916 9.65814 26.58L8.83689 27.4125L8.28939 25.8563C8.2614 25.7258 8.26304 25.5906 8.29419 25.4608C8.32535 25.331 8.38522 25.2099 8.4694 25.1063ZM13.1381 40.2244C12.6341 40.2239 12.1508 40.0234 11.7943 39.667C11.4379 39.3105 11.2374 38.8272 11.2369 38.3232V36.735C11.8388 36.9563 12.4819 37.095 13.1588 37.095C13.8206 37.095 14.4469 36.96 15.0375 36.7482V38.3232C15.0375 38.8271 14.8375 39.3104 14.4813 39.6669C14.1252 40.0234 13.6421 40.2239 13.1381 40.2244ZM34.125 32.0944L33.2738 32.9457L32.3044 31.9763L31.335 31.005L32.5463 29.7938L32.8463 29.4938L34.125 30.7688C34.2127 30.8554 34.2823 30.9587 34.3299 31.0724C34.3774 31.1862 34.4019 31.3083 34.4019 31.4316C34.4019 31.5549 34.3774 31.677 34.3299 31.7907C34.2823 31.9045 34.2127 32.0077 34.125 32.0944ZM54.3881 29.9963H35.8706C35.7545 29.7954 35.6141 29.6096 35.4525 29.4432L34.1756 28.1663L35.3869 26.955C35.5577 26.7782 35.6522 26.5414 35.65 26.2956C35.6479 26.0498 35.5493 25.8146 35.3755 25.6408C35.2017 25.467 34.9665 25.3684 34.7207 25.3663C34.4749 25.3641 34.2381 25.4586 34.0613 25.6294L32.1863 27.5044L31.2225 28.4682L29.6944 29.9963H26.265V7.49628H54.39L54.3881 29.9963Z" fill="#CF413F"/>
<path d="M40.3125 27.1838C44.9644 27.1838 48.75 23.3982 48.75 18.7463C48.75 14.0944 44.9644 10.3088 40.3125 10.3088C35.6606 10.3088 31.875 14.0944 31.875 18.7463C31.875 23.3982 35.6606 27.1838 40.3125 27.1838ZM40.3125 12.1838C43.9312 12.1838 46.875 15.1275 46.875 18.7463C46.875 22.365 43.9312 25.3088 40.3125 25.3088C36.6937 25.3088 33.75 22.365 33.75 18.7463C33.75 15.1275 36.6937 12.1838 40.3125 12.1838Z" fill="#CF413F"/>
<path d="M38.0326 22.7362C38.1749 22.8192 38.3366 22.863 38.5013 22.863C38.6661 22.863 38.8278 22.8192 38.9701 22.7362L44.4676 19.5618C44.6101 19.4796 44.7284 19.3612 44.8107 19.2187C44.893 19.0762 44.9363 18.9145 44.9363 18.75C44.9363 18.5854 44.893 18.4238 44.8107 18.2812C44.7284 18.1387 44.6101 18.0204 44.4676 17.9381L38.9701 14.7637C38.8276 14.6814 38.6659 14.6381 38.5013 14.6381C38.3368 14.6381 38.1751 14.6814 38.0326 14.7637C37.8901 14.846 37.7717 14.9643 37.6895 15.1069C37.6072 15.2494 37.5638 15.411 37.5638 15.5756V21.9262C37.5642 22.0905 37.6077 22.2517 37.6899 22.3939C37.7722 22.5361 37.8904 22.6541 38.0326 22.7362ZM39.4388 17.1993L42.1238 18.75L39.4388 20.3006V17.1993ZM8.38134 53.4412V47.5912C8.38134 46.5412 7.99134 45.5381 7.28447 44.7619L6.60572 44.0194C6.52404 43.9238 6.42398 43.8456 6.31149 43.7895C6.199 43.7334 6.07637 43.7005 5.9509 43.6928C5.82543 43.685 5.69969 43.7026 5.58114 43.7444C5.4626 43.7862 5.35367 43.8515 5.26085 43.9362C5.16803 44.021 5.0932 44.1236 5.04082 44.2379C4.98845 44.3521 4.95958 44.4758 4.95596 44.6014C4.95233 44.7271 4.97401 44.8522 5.01971 44.9693C5.06541 45.0864 5.13419 45.1931 5.22197 45.2831L5.90072 46.0256C6.29072 46.455 6.50634 47.01 6.50634 47.5912V53.4412C6.50634 53.6899 6.60512 53.9283 6.78093 54.1041C6.95675 54.28 7.1952 54.3787 7.44384 54.3787C7.69248 54.3787 7.93094 54.28 8.10676 54.1041C8.28257 53.9283 8.38134 53.6899 8.38134 53.4412Z" fill="#CF413F"/>
</svg>
